<?xml version="1.0" encoding="UTF-8" standalone="no"?>
<!-- Created with Inkscape (http://www.inkscape.org/) -->

<svg
   width="26.458336mm"
   height="9.7366638mm"
   viewBox="0 0 26.458336 9.7366638"
   version="1.1"
   id="svg1"
   xml:space="preserve"
   xmlns="http://www.w3.org/2000/svg"
   xmlns:svg="http://www.w3.org/2000/svg"><defs
     id="defs1" /><g
     id="layer2"
     style="display:inline"
     transform="translate(-2.9690152e-6,-114.19416)"><path
       style="fill:#a9afa9;fill-opacity:1;stroke:#000000;stroke-width:0.314324;stroke-dasharray:none;stroke-opacity:1"
       d="m -137.07301,130.86101 21.67733,-8.87972 4.53037,-5.85644 -1.36728,-3.33783 -7.81614,-1.06018 -21.28985,8.72099 a 1.2799208,1.2799208 112.72444 0 0 -0.69923,1.66957 l 3.29523,8.04438 a 1.2799213,1.2799213 22.724434 0 0 1.66957,0.69923 z"
       id="path162-5"
       transform="matrix(0.77894439,0.31907149,-0.31908022,0.77892304,149.7371,65.603975)" /><path
       style="fill:#ededba;fill-opacity:1;stroke:#000000;stroke-width:0.314324;stroke-dasharray:none;stroke-opacity:1"
       d="m -137.07301,130.86101 21.67733,-8.87972 4.53037,-5.85644 -1.36728,-3.33783 -7.81614,-1.06018 -21.28985,8.72099 a 1.2799208,1.2799208 112.72444 0 0 -0.69923,1.66957 l 3.29523,8.04438 a 1.2799213,1.2799213 22.724434 0 0 1.66957,0.69923 z"
       id="path200"
       transform="matrix(0.77894439,0.31907149,-0.31908022,0.77892304,176.19543,65.603975)" /></g></svg>
