<?xml version="1.0" encoding="UTF-8" standalone="no"?>
<!-- Created with Inkscape (http://www.inkscape.org/) -->

<svg
   width="26.458574mm"
   height="11.36068mm"
   viewBox="0 0 26.458574 11.36068"
   version="1.1"
   id="svg1"
   xml:space="preserve"
   xmlns="http://www.w3.org/2000/svg"
   xmlns:svg="http://www.w3.org/2000/svg"><defs
     id="defs1" /><g
     id="layer2"
     style="display:inline"
     transform="translate(-105.83333,-7.5488273)"><g
       id="g147"
       style="stroke-width:0.264583;stroke-dasharray:none"
       transform="matrix(0.99993405,0,0,0.99993405,0.10345495,7.825433)"><g
         id="g145"
         style="fill:#005774;fill-opacity:1;stroke:#000000;stroke-width:0.266535;stroke-dasharray:none"
         transform="matrix(0.99267714,0,0,0.99267714,0.77430322,-0.00200527)"><path
           style="fill:#005774;fill-opacity:1;stroke:#000000;stroke-width:0.266535;stroke-dasharray:none;stroke-opacity:1"
           d="m 131.63622,4.8996313 0.55739,2.93734 h -2.13224 l -0.29576,-0.78447 z"
           id="path145" /><path
           style="fill:#005774;fill-opacity:1;stroke:#000000;stroke-width:0.266535;stroke-dasharray:none;stroke-opacity:1"
           d="m 128.88475,3.5210313 1.23395,1.73497 -1.16283,0.4814 -0.59565,-1.89034 z"
           id="path143" /><path
           style="fill:#005774;fill-opacity:1;stroke:#000000;stroke-width:0.266535;stroke-dasharray:none;stroke-opacity:1"
           d="m 128.36022,3.8470613 0.96832,3.07305 -2.47565,0.48836 -1.62655,-1.61348 z"
           id="path142" /><path
           style="fill:#005774;fill-opacity:1;stroke:#000000;stroke-width:0.266535;stroke-dasharray:none;stroke-opacity:1"
           d="m 125.22634,5.7949813 -1.25887,-0.37198 -2.82869,1.27227 0.35149,2.21621 3.98021,-2.17101 z"
           id="path135" /><path
           style="fill:#005774;fill-opacity:1;stroke:#000000;stroke-width:0.266535;stroke-dasharray:none;stroke-opacity:1"
           d="m 118.02034,1.8788513 2.7277,2.13391 0.60061,4.12331 -2.79019,-3.99342 -1.5958,0.59379 -0.80681,-0.36991 z"
           id="path133" /><path
           style="fill:#005774;fill-opacity:1;stroke:#000000;stroke-width:0.266535;stroke-dasharray:none;stroke-opacity:1"
           d="m 121.34865,8.1360713 -2.79019,-3.99342 -1.5958,0.59379 3.17304,3.46065 z"
           id="path132" /><path
           style="fill:#005774;fill-opacity:1;stroke:#000000;stroke-width:0.266535;stroke-dasharray:none;stroke-opacity:1"
           d="m 117.93684,4.8199413 2.51525,2.97608 -2.95131,0.11345 0.025,-1.14743 z"
           id="path131" /><path
           style="fill:#005774;fill-opacity:1;stroke:#000000;stroke-width:0.266535;stroke-dasharray:none;stroke-opacity:1"
           d="m 112.04538,2.4819213 4.09155,3.77609 -2.74625,0.38968 -1.0484,-0.82574 z"
           id="path125" /><path
           style="fill:#005774;fill-opacity:1;stroke:#000000;stroke-width:0.266535;stroke-dasharray:none;stroke-opacity:1"
           d="m 109.13213,3.6694813 3.21015,2.15247 -0.11134,1.70713 -2.30091,-1.06695 -0.65873,-0.77935 z"
           id="path123" /><path
           style="fill:#005774;fill-opacity:1;stroke:#000000;stroke-width:0.266535;stroke-dasharray:none;stroke-opacity:1"
           d="m 108.61257,4.9034413 1.31746,1.55869 -0.95563,0.97417 -1.4659,-1.71641 z"
           id="path121" /><path
           style="fill:#005774;fill-opacity:1;stroke:#000000;stroke-width:0.266535;stroke-dasharray:none;stroke-opacity:1"
           d="m 106.61782,5.4230013 -0.38039,-0.91851 2.37514,0.39895 -1.10407,0.81645 z"
           id="path120" /><path
           style="fill:#005774;fill-opacity:1;stroke:#000000;stroke-width:0.266535;stroke-dasharray:none;stroke-opacity:1"
           d="m 108.61257,4.9034413 0.51956,-1.23396 0.13917,2.0133 z"
           id="path122" /><path
           style="fill:#005774;fill-opacity:1;stroke:#000000;stroke-width:0.266535;stroke-dasharray:none;stroke-opacity:1"
           d="m 110.7372,4.7457213 1.30818,-2.2638 0.2969,3.34003 z"
           id="path124" /><path
           style="fill:#005774;fill-opacity:1;stroke:#000000;stroke-width:0.266535;stroke-dasharray:none;stroke-opacity:1"
           d="m 112.04538,2.4819213 4.91728,2.25452 -0.82573,1.52157 z"
           id="path126" /><path
           style="fill:#005774;fill-opacity:1;stroke:#000000;stroke-width:0.266535;stroke-dasharray:none;stroke-opacity:1"
           d="m 113.07523,2.9272513 2.42153,-0.60306 -0.18341,1.65606 z"
           id="path127" /><path
           style="fill:#005774;fill-opacity:1;stroke:#000000;stroke-width:0.266535;stroke-dasharray:none;stroke-opacity:1"
           d="m 115.49676,2.3241913 1.09479,-0.6309 -0.94182,2.44118 -0.33646,-0.15426 z"
           id="path128" /><path
           style="fill:#005774;fill-opacity:1;stroke:#000000;stroke-width:0.266535;stroke-dasharray:none;stroke-opacity:1"
           d="m 116.59155,1.6932913 0.95562,-1.58652003 0.47317,1.77208003 -1.82915,2.50388 -0.54146,-0.24826 z"
           id="path129" /><path
           style="fill:#005774;fill-opacity:1;stroke:#000000;stroke-width:0.266535;stroke-dasharray:none;stroke-opacity:1"
           d="m 116.96266,4.7364413 0.97418,0.0835 -0.41102,1.9421 -1.38889,-0.50403 z"
           id="path130" /><path
           style="fill:#005774;fill-opacity:1;stroke:#000000;stroke-width:0.266535;stroke-dasharray:none;stroke-opacity:1"
           d="m 120.74804,4.0127613 -0.0186,-1.15973 -3.18231,-2.74626003 0.47317,1.77208003 z"
           id="path134" /><path
           style="fill:#005774;fill-opacity:1;stroke:#000000;stroke-width:0.266535;stroke-dasharray:none;stroke-opacity:1"
           d="m 123.6534,5.5642613 -0.22405,-1.43088 -2.53627,0.87513 0.2457,1.68676 z"
           id="path136" /><path
           style="fill:#005774;fill-opacity:1;stroke:#000000;stroke-width:0.266535;stroke-dasharray:none;stroke-opacity:1"
           d="m 123.6534,5.5642613 1.28824,-0.74432 -1.5494,-1.10407 0.0371,0.41751 z"
           id="path137" /><path
           style="fill:#005774;fill-opacity:1;stroke:#000000;stroke-width:0.266535;stroke-dasharray:none;stroke-opacity:1"
           d="m 123.39224,3.7158713 -0.3804,-0.99273 -2.27309,0.70975 0.009,0.57987 0.14505,0.99575 2.53626,-0.87513 z"
           id="path138" /><path
           style="fill:#005774;fill-opacity:1;stroke:#000000;stroke-width:0.266535;stroke-dasharray:none;stroke-opacity:1"
           d="m 123.01184,2.7231413 -0.0278,-1.69786 -1.42879,0.87213 -0.82575,0.95562 0.009,0.57986 z"
           id="path139" /><path
           style="fill:#005774;fill-opacity:1;stroke:#000000;stroke-width:0.266535;stroke-dasharray:none;stroke-opacity:1"
           d="m 122.98401,1.0252813 1.79991,1.11335 1.14118,2.25453 -0.98346,0.42678 -1.5494,-1.10407 -0.3804,-0.99273 z"
           id="path140" /><path
           style="fill:#005774;fill-opacity:1;stroke:#000000;stroke-width:0.266535;stroke-dasharray:none;stroke-opacity:1"
           d="m 125.22634,5.7949913 3.65841,-2.27396 -2.95965,0.87213 -0.98346,0.42678 -0.97417,0.60306 z"
           id="path141" /><path
           style="fill:#005774;fill-opacity:1;stroke:#000000;stroke-width:0.266535;stroke-dasharray:none;stroke-opacity:1"
           d="m 130.1187,5.2560013 1.54941,-0.42678 -1.96154,2.25765 -0.37803,-0.16676 -0.37267,-1.18271 z"
           id="path144" /></g><path
         id="path146"
         style="fill:#c1c1c1;fill-opacity:1;stroke:#000000;stroke-width:0.264583;stroke-dasharray:none;stroke-opacity:1"
         d="m 107.13189,5.3289006 c -0.15857,-0.00794 -0.33253,0.010622 -0.52051,0.052413 -0.51725,1.0708704 -0.86619,2.1056668 -0.69996,3.0300775 0.17999,0.8021725 1.62372,2.3115679 2.55878,1.8333559 0.93507,-0.4782126 1.74233,0.132175 2.99568,0.221476 0.82925,-0.143273 1.38067,-0.164914 1.65419,-0.06502 0.8953,0.08408 1.21761,-0.198566 1.82357,-0.29961 1.03641,0.545158 1.51197,0.461098 2.59188,0.130229 0.57775,-0.136443 0.66904,-0.03792 1.53979,0.193989 2.96859,-0.5659947 2.66712,0.224385 3.94373,0.366089 1.02128,-0.252427 2.53618,-0.447846 3.29514,0.0129 0.87485,0.229755 1.56931,0.12875 2.30551,0.104331 0.88029,-0.360839 1.69043,-0.431041 2.42265,-0.403792 0.35715,-0.185283 0.59756,-0.413599 0.72139,-0.6848477 0.35634,-0.6385396 0.25532,-1.3097382 0.29473,-1.9709207 -3.66026,-0.8423561 -4.65171,-2.3551563 -6.51144,-2.2656466 -1.22396,0.2157087 -2.86077,2.5933591 -3.88659,2.5879887 -1.07333,-0.1820272 -1.85473,-0.8039395 -2.81177,-1.0010057 -0.8691,-0.1789698 -1.26942,-0.4585275 -2.78788,-0.960713 -0.53725,-0.08944 -1.23106,-0.2150635 -1.76831,-0.1197267 -1.92885,-1.3515399 -1.85838,-0.1131454 -2.48668,0.2394635 -0.24355,0.2630396 -0.55955,0.2362075 -0.87495,0.2118273 L 110.5256,6.2746737 c -0.80233,0.181104 -1.59689,0.69677 -2.42221,-0.1105246 -0.15897,-0.5556809 -0.49582,-0.8122085 -0.9715,-0.8352287 z" /><path
         id="path119"
         style="fill:#979797;fill-opacity:1;stroke:#000000;stroke-width:0.264583;stroke-dasharray:none;stroke-opacity:1"
         d="m 105.91142,8.4113616 c 0.17999,0.8021725 1.62372,2.3115674 2.55878,1.8333554 0.93507,-0.478222 1.74233,0.132165 2.99568,0.221466 0.82925,-0.143273 1.38067,-0.164903 1.65419,-0.06502 0.8953,0.08408 1.21761,-0.198565 1.82357,-0.29961 1.03641,0.545158 1.51197,0.461099 2.59188,0.130229 0.57775,-0.136443 0.66904,-0.03792 1.53979,0.193989 2.96859,-0.5659941 2.66712,0.224385 3.94373,0.36609 1.02128,-0.252428 2.53618,-0.447847 3.29514,0.0129 0.87485,0.229756 1.56931,0.128751 2.30551,0.104331 0.88029,-0.360838 1.69043,-0.43104 2.42265,-0.403791 0.35715,-0.185284 0.59756,-0.413599 0.72139,-0.6848481 -3.38707,0.3262831 -6.63314,0.6607651 -9.67043,-0.3223421 -1.39378,0.1013623 -2.78755,0.3024389 -4.18132,0.1289388 -1.12669,0.1582129 -2.25336,-0.014592 -3.38005,-0.1105247 -1.22183,0.055391 -2.40478,0.3440619 -3.69319,0 -0.8691,0.00794 -1.44154,-0.1091448 -2.72614,0.073657 -0.73776,-0.3285265 -1.486,-0.4892806 -2.20118,-1.1788736 z" /><path
         id="path147"
         style="fill:none;fill-opacity:1;stroke:#000000;stroke-width:0.264583;stroke-dasharray:none;stroke-opacity:1"
         d="m 107.13189,5.3289006 c -0.15857,-0.00794 -0.33253,0.010622 -0.52051,0.052413 -0.51725,1.0708704 -0.86619,2.1056668 -0.69996,3.0300775 0.17999,0.8021725 1.62372,2.3115679 2.55878,1.8333559 0.93507,-0.4782126 1.74233,0.132175 2.99568,0.221476 0.82925,-0.143273 1.38067,-0.164914 1.65419,-0.06502 0.8953,0.08408 1.21761,-0.198566 1.82357,-0.29961 1.03641,0.545158 1.51197,0.461098 2.59188,0.130229 0.57775,-0.136443 0.66904,-0.03792 1.53979,0.193989 2.96859,-0.5659947 2.66712,0.224385 3.94373,0.366089 1.02128,-0.252427 2.53618,-0.447846 3.29514,0.0129 0.87485,0.229755 1.56931,0.12875 2.30551,0.104331 0.88029,-0.360839 1.69043,-0.431041 2.42265,-0.403792 0.35715,-0.185283 0.59756,-0.413599 0.72139,-0.6848477 0.35634,-0.6385396 0.25532,-1.3097382 0.29473,-1.9709207 -3.66026,-0.8423561 -4.65171,-2.3551563 -6.51144,-2.2656466 -1.22396,0.2157087 -2.86077,2.5933591 -3.88659,2.5879887 -1.07333,-0.1820272 -1.85473,-0.8039395 -2.81177,-1.0010057 -0.8691,-0.1789698 -1.26942,-0.4585275 -2.78788,-0.960713 -0.53725,-0.08944 -1.23106,-0.2150635 -1.76831,-0.1197267 -1.92885,-1.3515399 -1.85838,-0.1131454 -2.48668,0.2394635 -0.24355,0.2630396 -0.55955,0.2362075 -0.87495,0.2118273 L 110.5256,6.2746737 c -0.80233,0.181104 -1.59689,0.69677 -2.42221,-0.1105246 -0.15897,-0.5556809 -0.49582,-0.8122085 -0.9715,-0.8352287 z" /></g></g></svg>
