<?xml version="1.0" encoding="UTF-8" standalone="no"?>
<!-- Created with Inkscape (http://www.inkscape.org/) -->

<svg
   width="26.458574mm"
   height="12.830967mm"
   viewBox="0 0 26.458574 12.830967"
   version="1.1"
   id="svg1"
   xml:space="preserve"
   xmlns="http://www.w3.org/2000/svg"
   xmlns:svg="http://www.w3.org/2000/svg"><defs
     id="defs1" /><g
     id="layer2"
     style="display:inline"
     transform="translate(-79.374877,-218.87855)"><g
       id="g298-2-3-5"
       transform="matrix(0.41992447,0.00934467,-0.00921419,0.41659585,26.929024,118.34575)"
       style="display:inline;fill:#a45a52;fill-opacity:1;stroke-width:2.39029"><path
         style="fill:#a45a52;fill-opacity:1;stroke:#000000;stroke-width:0.63243;stroke-opacity:1"
         d="m 70.043817,257.80176 54.816983,10.85115 -2.33861,-2.99342 -54.489576,-11.78657 z"
         id="path189-4-2-4" /><path
         style="fill:#a45a52;fill-opacity:1;stroke:#000000;stroke-width:0.63243;stroke-opacity:1"
         d="m 68.032614,253.87292 5.565888,-13.84457 55.284698,9.54151 -6.36101,16.08963 z"
         id="path190-5-2-3" /><path
         style="fill:#a45a52;fill-opacity:1;stroke:#000000;stroke-width:0.63243;stroke-opacity:1"
         d="m 128.8832,249.56986 1.21608,2.99342 -5.23848,16.08963 -2.33861,-2.99342 z"
         id="path191-5-1-1" /><path
         style="fill:#a45a52;fill-opacity:1;stroke:#000000;stroke-width:0.63243;stroke-opacity:1"
         d="m 53.061901,412.66313 c 0.583391,0.64446 1.275223,1.19051 2.037577,1.60822 1.543747,0.84586 3.321543,1.14528 5.068495,1.36161 1.746951,0.21632 3.522809,0.36716 5.181691,0.95601 2.063537,0.73249 3.878602,2.14683 5.093229,3.96875"
         id="path192-1-6-2"
         transform="translate(16.536458,-162.58646)" /><path
         style="fill:#a45a52;fill-opacity:1;stroke:#000000;stroke-width:0.63243;stroke-opacity:1"
         d="m 53.733493,410.89423 c 2.430008,1.52378 5.311487,2.31739 8.179006,2.25264 2.074143,-0.0468 4.117036,-0.52957 6.189383,-0.62776 1.036174,-0.0491 2.083653,-6.2e-4 3.091801,0.24372 1.008149,0.24434 1.97834,0.6912 2.757358,1.37618 1.094434,0.96232 1.744714,2.32009 2.628498,3.47887 0.441891,0.57939 0.952518,1.11791 1.572665,1.50051 0.620147,0.38259 1.359609,0.6008 2.08269,0.51072 0.685735,-0.0854 1.305241,-0.43432 1.923991,-0.74202 0.309375,-0.15385 0.624467,-0.29941 0.955387,-0.39878 0.33092,-0.0994 0.679566,-0.15174 1.023227,-0.11597 0.481374,0.0501 0.933488,0.272 1.314241,0.57076 0.380753,0.29876 0.695962,0.67247 0.986783,1.05932 0.58164,0.77371 1.104914,1.63789 1.932309,2.14023 0.679481,0.41253 1.492578,0.53416 2.284026,0.60824 0.791449,0.0741 1.599271,0.11192 2.346182,0.38395 0.705851,0.25708 1.334329,0.72262 1.785938,1.32292"
         id="path193-7-8-3"
         transform="translate(16.536458,-162.58646)" /><path
         style="fill:#a45a52;fill-opacity:1;stroke:#000000;stroke-width:0.63243;stroke-opacity:1"
         d="m 72.327174,243.19065 c 0,0 14.58845,6.17913 17.961887,5.91455"
         id="path194-1-5-3" /><path
         style="fill:#a45a52;fill-opacity:1;stroke:#000000;stroke-width:0.63243;stroke-opacity:1"
         d="m 92.604165,245.33489 c 0,0 3.96875,5.15937 6.680729,4.82864 2.711976,-0.33072 0.727606,-1.71979 2.711976,-1.32291 1.98438,0.39687 4.10104,0.66146 4.10104,0.66146"
         id="path195-1-7-4" /><path
         style="fill:#a45a52;fill-opacity:1;stroke:#000000;stroke-width:0.63243;stroke-opacity:1"
         d="m 106.29635,255.25676 c 0,0 7.80521,4.0349 8.33438,4.8948 1.17755,1.91533 6.50599,2.46872 8.84417,3.09811"
         id="path196-5-6-1" /><path
         style="fill:#a45a52;fill-opacity:1;stroke:#000000;stroke-width:0.63243;stroke-opacity:1"
         d="m 112.31562,252.87552 c 0,0 6.08542,-2.31511 6.94532,-0.59531 0.85989,1.71979 2.64583,3.10885 3.77031,3.10885 1.12448,0 3.47785,0.18588 3.47785,0.18588"
         id="path198-2-1-1" /></g><g
       id="g155"
       transform="matrix(0.41992447,0.00934467,-0.00921419,0.41659585,53.387358,118.34575)"
       style="display:inline;fill:#b4745e;fill-opacity:1;stroke-width:2.39029"><path
         style="fill:#b4745e;fill-opacity:1;stroke:#000000;stroke-width:0.63243;stroke-opacity:1"
         d="m 70.043817,257.80176 54.816983,10.85115 -2.33861,-2.99342 -54.489576,-11.78657 z"
         id="path45" /><path
         style="fill:#b4745e;fill-opacity:1;stroke:#000000;stroke-width:0.63243;stroke-opacity:1"
         d="m 68.032614,253.87292 5.565888,-13.84457 55.284698,9.54151 -6.36101,16.08963 z"
         id="path46" /><path
         style="fill:#b4745e;fill-opacity:1;stroke:#000000;stroke-width:0.63243;stroke-opacity:1"
         d="m 128.8832,249.56986 1.21608,2.99342 -5.23848,16.08963 -2.33861,-2.99342 z"
         id="path47" /><path
         style="fill:#b4745e;fill-opacity:1;stroke:#000000;stroke-width:0.63243;stroke-opacity:1"
         d="m 53.061901,412.66313 c 0.583391,0.64446 1.275223,1.19051 2.037577,1.60822 1.543747,0.84586 3.321543,1.14528 5.068495,1.36161 1.746951,0.21632 3.522809,0.36716 5.181691,0.95601 2.063537,0.73249 3.878602,2.14683 5.093229,3.96875"
         id="path48"
         transform="translate(16.536458,-162.58646)" /><path
         style="fill:#b4745e;fill-opacity:1;stroke:#000000;stroke-width:0.63243;stroke-opacity:1"
         d="m 53.733493,410.89423 c 2.430008,1.52378 5.311487,2.31739 8.179006,2.25264 2.074143,-0.0468 4.117036,-0.52957 6.189383,-0.62776 1.036174,-0.0491 2.083653,-6.2e-4 3.091801,0.24372 1.008149,0.24434 1.97834,0.6912 2.757358,1.37618 1.094434,0.96232 1.744714,2.32009 2.628498,3.47887 0.441891,0.57939 0.952518,1.11791 1.572665,1.50051 0.620147,0.38259 1.359609,0.6008 2.08269,0.51072 0.685735,-0.0854 1.305241,-0.43432 1.923991,-0.74202 0.309375,-0.15385 0.624467,-0.29941 0.955387,-0.39878 0.33092,-0.0994 0.679566,-0.15174 1.023227,-0.11597 0.481374,0.0501 0.933488,0.272 1.314241,0.57076 0.380753,0.29876 0.695962,0.67247 0.986783,1.05932 0.58164,0.77371 1.104914,1.63789 1.932309,2.14023 0.679481,0.41253 1.492578,0.53416 2.284026,0.60824 0.791449,0.0741 1.599271,0.11192 2.346182,0.38395 0.705851,0.25708 1.334329,0.72262 1.785938,1.32292"
         id="path87"
         transform="translate(16.536458,-162.58646)" /><path
         style="fill:#b4745e;fill-opacity:1;stroke:#000000;stroke-width:0.63243;stroke-opacity:1"
         d="m 72.327174,243.19065 c 0,0 14.58845,6.17913 17.961887,5.91455"
         id="path89" /><path
         style="fill:#b4745e;fill-opacity:1;stroke:#000000;stroke-width:0.63243;stroke-opacity:1"
         d="m 92.604165,245.33489 c 0,0 3.96875,5.15937 6.680729,4.82864 2.711976,-0.33072 0.727606,-1.71979 2.711976,-1.32291 1.98438,0.39687 4.10104,0.66146 4.10104,0.66146"
         id="path153" /><path
         style="fill:#b4745e;fill-opacity:1;stroke:#000000;stroke-width:0.63243;stroke-opacity:1"
         d="m 106.29635,255.25676 c 0,0 7.80521,4.0349 8.33438,4.8948 1.17755,1.91533 6.50599,2.46872 8.84417,3.09811"
         id="path154" /><path
         style="fill:#b4745e;fill-opacity:1;stroke:#000000;stroke-width:0.63243;stroke-opacity:1"
         d="m 112.31562,252.87552 c 0,0 6.08542,-2.31511 6.94532,-0.59531 0.85989,1.71979 2.64583,3.10885 3.77031,3.10885 1.12448,0 3.47785,0.18588 3.47785,0.18588"
         id="path155" /></g><g
       id="g220"
       transform="matrix(0.41992447,0.00934467,-0.00921419,0.41659585,79.845691,118.34575)"
       style="display:inline;fill:#8b4513;fill-opacity:1;stroke-width:2.39029"><path
         style="fill:#8b4513;fill-opacity:1;stroke:#000000;stroke-width:0.63243;stroke-opacity:1"
         d="m 70.043817,257.80176 54.816983,10.85115 -2.33861,-2.99342 -54.489576,-11.78657 z"
         id="path160" /><path
         style="fill:#8b4513;fill-opacity:1;stroke:#000000;stroke-width:0.63243;stroke-opacity:1"
         d="m 68.032614,253.87292 5.565888,-13.84457 55.284698,9.54151 -6.36101,16.08963 z"
         id="path162" /><path
         style="fill:#8b4513;fill-opacity:1;stroke:#000000;stroke-width:0.63243;stroke-opacity:1"
         d="m 128.8832,249.56986 1.21608,2.99342 -5.23848,16.08963 -2.33861,-2.99342 z"
         id="path188" /><path
         style="fill:#8b4513;fill-opacity:1;stroke:#000000;stroke-width:0.63243;stroke-opacity:1"
         d="m 53.061901,412.66313 c 0.583391,0.64446 1.275223,1.19051 2.037577,1.60822 1.543747,0.84586 3.321543,1.14528 5.068495,1.36161 1.746951,0.21632 3.522809,0.36716 5.181691,0.95601 2.063537,0.73249 3.878602,2.14683 5.093229,3.96875"
         id="path197"
         transform="translate(16.536458,-162.58646)" /><path
         style="fill:#8b4513;fill-opacity:1;stroke:#000000;stroke-width:0.63243;stroke-opacity:1"
         d="m 53.733493,410.89423 c 2.430008,1.52378 5.311487,2.31739 8.179006,2.25264 2.074143,-0.0468 4.117036,-0.52957 6.189383,-0.62776 1.036174,-0.0491 2.083653,-6.2e-4 3.091801,0.24372 1.008149,0.24434 1.97834,0.6912 2.757358,1.37618 1.094434,0.96232 1.744714,2.32009 2.628498,3.47887 0.441891,0.57939 0.952518,1.11791 1.572665,1.50051 0.620147,0.38259 1.359609,0.6008 2.08269,0.51072 0.685735,-0.0854 1.305241,-0.43432 1.923991,-0.74202 0.309375,-0.15385 0.624467,-0.29941 0.955387,-0.39878 0.33092,-0.0994 0.679566,-0.15174 1.023227,-0.11597 0.481374,0.0501 0.933488,0.272 1.314241,0.57076 0.380753,0.29876 0.695962,0.67247 0.986783,1.05932 0.58164,0.77371 1.104914,1.63789 1.932309,2.14023 0.679481,0.41253 1.492578,0.53416 2.284026,0.60824 0.791449,0.0741 1.599271,0.11192 2.346182,0.38395 0.705851,0.25708 1.334329,0.72262 1.785938,1.32292"
         id="path203"
         transform="translate(16.536458,-162.58646)" /><path
         style="fill:#8b4513;fill-opacity:1;stroke:#000000;stroke-width:0.63243;stroke-opacity:1"
         d="m 72.327174,243.19065 c 0,0 14.58845,6.17913 17.961887,5.91455"
         id="path214" /><path
         style="fill:#8b4513;fill-opacity:1;stroke:#000000;stroke-width:0.63243;stroke-opacity:1"
         d="m 92.604165,245.33489 c 0,0 3.96875,5.15937 6.680729,4.82864 2.711976,-0.33072 0.727606,-1.71979 2.711976,-1.32291 1.98438,0.39687 4.10104,0.66146 4.10104,0.66146"
         id="path216" /><path
         style="fill:#8b4513;fill-opacity:1;stroke:#000000;stroke-width:0.63243;stroke-opacity:1"
         d="m 106.29635,255.25676 c 0,0 7.80521,4.0349 8.33438,4.8948 1.17755,1.91533 6.50599,2.46872 8.84417,3.09811"
         id="path218" /><path
         style="fill:#8b4513;fill-opacity:1;stroke:#000000;stroke-width:0.63243;stroke-opacity:1"
         d="m 112.31562,252.87552 c 0,0 6.08542,-2.31511 6.94532,-0.59531 0.85989,1.71979 2.64583,3.10885 3.77031,3.10885 1.12448,0 3.47785,0.18588 3.47785,0.18588"
         id="path220" /></g></g></svg>
