<?xml version="1.0" encoding="UTF-8" standalone="no"?>
<!-- Created with Inkscape (http://www.inkscape.org/) -->

<svg
   width="26.458469mm"
   height="21.380186mm"
   viewBox="0 0 26.458469 21.380186"
   version="1.1"
   id="svg1"
   xml:space="preserve"
   xmlns="http://www.w3.org/2000/svg"
   xmlns:svg="http://www.w3.org/2000/svg"><defs
     id="defs1" /><g
     id="layer2"
     style="display:inline"
     transform="translate(-79.374999,-2.5392064)"><g
       id="g117"
       transform="matrix(0.53768873,0,0,0.53768627,49.40911,-50.229651)"
       style="stroke-width:0.492057;stroke-dasharray:none"><path
         style="fill:#e5e5e5;fill-opacity:1;stroke:#1a1a1a;stroke-width:0.492057;stroke-dasharray:none"
         d="m 67.211603,134.86755 c 3.954546,0.68276 8.395889,-0.0253 12.768802,-0.53789 10.253546,-2.15899 10.016852,1.62648 13.470385,3.32083 5.039229,-0.64593 5.657907,-4.13363 7.43677,-6.87551 2.32302,-1.65262 3.39878,-3.49232 3.22728,-5.51912 2.68943,-6.23553 -4.849421,-7.24918 -5.144935,-7.06259 -1.827602,-2.69433 -4.583399,-1.30459 -6.969053,-1.54349 -1.216076,-1.3408 -2.494516,-2.1827 -3.835318,-2.52569 -6.264301,-0.58643 -13.774713,-1.54316 -19.692114,-3.74696 -0.538543,-0.20057 -1.911856,0.46219 -2.128119,1.02865 -0.639275,0.85891 -0.930053,1.14135 -1.548422,1.47759 -0.919083,-0.6676 -2.731009,-0.10609 -3.86134,0.49901 -2.744375,1.6889 -3.730129,2.69017 -4.949257,5.83987 -0.06236,1.5123 0.18709,2.96224 0.748356,4.34981 2.72442,1.39968 5.673494,1.22679 8.512535,1.82412 1.559072,3.10255 1.652616,6.11936 1.96443,9.47137 z"
         id="path41" /><g
         id="g49"
         style="fill:#7fffd4;fill-opacity:1;stroke:#1a1a1a;stroke-width:0.492057;stroke-dasharray:none"><path
           style="fill:#52ffc2;fill-opacity:1;stroke:#1a1a1a;stroke-width:0.492057;stroke-dasharray:none"
           d="m 83.207684,119.4795 -3.086962,-2.15152 -6.197312,0.79513 z"
           id="path50" /><path
           style="fill:#b8ffea;fill-opacity:1;stroke:#1a1a1a;stroke-width:0.492057;stroke-dasharray:none"
           d="m 80.120722,117.32798 1.169305,-2.70109 -5.916682,0.78343 -1.449935,2.71279 z"
           id="path51" /><path
           style="fill:#33ffb6;fill-opacity:1;stroke:#1a1a1a;stroke-width:0.492057;stroke-dasharray:none"
           d="m 83.207682,119.4795 0.771744,-2.31522 -2.689399,-2.53739 -1.169305,2.70109 z"
           id="path52" /><path
           style="fill:#57ffc4;fill-opacity:1;stroke:#1a1a1a;stroke-width:0.492057;stroke-dasharray:none"
           d="m 83.207682,119.4795 7.810955,-8.76978 -5.02801,-3.78855 -4.7006,7.70572 2.689397,2.53739 z"
           id="path53" /><path
           style="fill:#9effe2;fill-opacity:1;stroke:#1a1a1a;stroke-width:0.492057;stroke-dasharray:none"
           d="m 75.373343,115.41032 -3.221659,-6.14922 -3.678264,1.11603 5.44999,7.74598 z"
           id="path54" /><path
           style="fill:#94ffdc;fill-opacity:1;stroke:#1a1a1a;stroke-width:0.492057;stroke-dasharray:none"
           d="m 72.151684,109.2611 5.900973,-7.91183 4.266355,0.11125 3.671613,5.46065 -4.700598,7.70572 -5.916684,0.78343 z"
           id="path55" /><path
           style="fill:#80ffd4;fill-opacity:1;stroke:#1a1a1a;stroke-width:0.492057;stroke-dasharray:none"
           d="m 91.018637,110.70972 -1.040681,-8.36053 -4.829228,-3.847007 -2.829718,2.958337 3.671615,5.46065 z"
           id="path56" /><path
           style="fill:#b3ffe8;fill-opacity:1;stroke:#1a1a1a;stroke-width:0.492057;stroke-dasharray:none"
           d="m 85.148726,98.502183 -8.501409,0.114923 1.40534,2.732164 4.266353,0.11125 z"
           id="path57" /><path
           style="fill:#a8ffe4;fill-opacity:1;stroke:#1a1a1a;stroke-width:0.492057;stroke-dasharray:none"
           d="m 68.47342,110.37713 8.173897,-11.760025 1.405339,2.732165 -5.900972,7.91183 z"
           id="path58" /></g><path
         style="fill:#80ffd4;fill-opacity:1;stroke:#1a1a1a;stroke-width:0.492057;stroke-dasharray:none;stroke-opacity:1"
         d="m 81.649747,125.66972 -4.747063,0.26558 4.006461,3.47379 z"
         id="path59" /><path
         style="fill:#80ffd4;fill-opacity:1;stroke:#1a1a1a;stroke-width:0.492057;stroke-dasharray:none;stroke-opacity:1"
         d="m 71.454263,122.45097 2.691541,-0.63565 -0.486944,2.76849 z"
         id="path60" /><path
         style="fill:#80ffd4;fill-opacity:1;stroke:#1a1a1a;stroke-width:0.492057;stroke-dasharray:none;stroke-opacity:1"
         d="m 77.565014,122.53965 2.16086,0.26074 -1.874847,-2.87445 z"
         id="path61" /><path
         style="fill:#80ffd4;fill-opacity:1;stroke:#1a1a1a;stroke-width:0.492057;stroke-dasharray:none;stroke-opacity:1"
         d="m 73.835256,127.36325 1.492904,0.79996 -0.594302,1.40831 z"
         id="path62" /><path
         style="fill:#80ffd4;fill-opacity:1;stroke:#1a1a1a;stroke-width:0.492057;stroke-dasharray:none;stroke-opacity:1"
         d="m 72.340977,118.31571 2.036494,0.29745 -1.508182,1.03389 z"
         id="path63" /><path
         style="fill:#80ffd4;fill-opacity:1;stroke:#1a1a1a;stroke-width:0.492057;stroke-dasharray:none;stroke-opacity:1"
         d="m 69.530946,117.63421 -2.087403,-0.012 1.192593,3.82356 1.742468,-1.31783 z"
         id="path64" /><path
         style="fill:#80ffd4;fill-opacity:1;stroke:#1a1a1a;stroke-width:0.492057;stroke-dasharray:none;stroke-opacity:1"
         d="m 84.404958,123.80491 -2.070144,-0.7886 1.356522,2.9241 0.784223,-0.89966 z"
         id="path65" /><path
         style="fill:#80ffd4;fill-opacity:1;stroke:#1a1a1a;stroke-width:0.492057;stroke-dasharray:none;stroke-opacity:1"
         d="m 81.694353,120.2546 -2.151459,-0.74074 0.899994,2.02496 1.419218,-0.0691 z"
         id="path66" /><path
         style="display:inline;fill:#80ffd4;fill-opacity:1;stroke:#1a1a1a;stroke-width:0.492057;stroke-dasharray:none;stroke-opacity:1"
         d="m 64.052582,114.09777 -1.639241,1.57808 2.212653,0.12091 0.584789,-1.29498 z"
         id="path66-2" /><path
         style="fill:#80ffd4;fill-opacity:1;stroke:#1a1a1a;stroke-width:0.492057;stroke-dasharray:none;stroke-opacity:1"
         d="m 75.894401,119.76395 -1.235612,0.69095 2.118039,0.8699 z"
         id="path67" /><path
         style="fill:#80ffd4;fill-opacity:1;stroke:#1a1a1a;stroke-width:0.492057;stroke-dasharray:none;stroke-opacity:1"
         d="m 72.299102,125.9318 -2.200648,-0.0183 1.467988,2.49351 z"
         id="path68" /><path
         style="fill:#80ffd4;fill-opacity:1;stroke:#1a1a1a;stroke-width:0.492057;stroke-dasharray:none;stroke-opacity:1"
         d="m 75.922005,125.51427 -1.331577,-0.092 0.951049,1.73942 z"
         id="path69" /><path
         style="fill:#80ffd4;fill-opacity:1;stroke:#1a1a1a;stroke-width:0.492057;stroke-dasharray:none;stroke-opacity:1"
         d="m 77.173129,123.6098 -1.14515,-0.45724 0.951048,1.73942 z"
         id="path70" /><path
         style="fill:#80ffd4;fill-opacity:1;stroke:#1a1a1a;stroke-width:0.492057;stroke-dasharray:none;stroke-opacity:1"
         d="m 86.231439,129.88309 -1.87081,-0.75997 1.279731,2.42185 z"
         id="path71" /><path
         style="fill:#80ffd4;fill-opacity:1;stroke:#1a1a1a;stroke-width:0.492057;stroke-dasharray:none;stroke-opacity:1"
         d="m 86.079077,127.45447 -0.157358,1.40655 1.420972,0.36785 z"
         id="path72" /><path
         style="fill:#80ffd4;fill-opacity:1;stroke:#1a1a1a;stroke-width:0.492057;stroke-dasharray:none;stroke-opacity:1"
         d="m 83.691791,127.18106 -1.317386,-0.50184 0.77392,1.62472 0.798917,-0.0689 z"
         id="path73" /><path
         style="fill:#80ffd4;fill-opacity:1;stroke:#1a1a1a;stroke-width:0.492057;stroke-dasharray:none;stroke-opacity:1"
         d="m 82.339158,130.42075 -2.991569,0.1609 2.001432,1.88515 z"
         id="path74" /><path
         style="fill:#80ffd4;fill-opacity:1;stroke:#1a1a1a;stroke-width:0.492057;stroke-dasharray:none;stroke-opacity:1"
         d="m 77.360746,130.87179 -4.050237,0.55961 2.353017,2.44694 z"
         id="path75" /><path
         style="fill:#80ffd4;fill-opacity:1;stroke:#1a1a1a;stroke-width:0.492057;stroke-dasharray:none;stroke-opacity:1"
         d="m 101.1682,125.58326 -2.272087,0.79017 1.710267,2.53337 z"
         id="path76" /><path
         style="fill:#80ffd4;fill-opacity:1;stroke:#1a1a1a;stroke-width:0.492057;stroke-dasharray:none;stroke-opacity:1"
         d="m 93.557214,129.28142 -2.18643,-0.42817 0.964053,2.13323 z"
         id="path77" /><path
         style="fill:#80ffd4;fill-opacity:1;stroke:#1a1a1a;stroke-width:0.492057;stroke-dasharray:none;stroke-opacity:1"
         d="m 88.441926,130.66206 -1.259201,1.58076 1.42905,0.69157 z"
         id="path78" /><path
         style="fill:#80ffd4;fill-opacity:1;stroke:#1a1a1a;stroke-width:0.492057;stroke-dasharray:none;stroke-opacity:1"
         d="m 91.674088,125.64103 -2.35517,0.40112 0.962422,2.31667 1.938783,-0.92241 z"
         id="path79" /><path
         style="fill:#80ffd4;fill-opacity:1;stroke:#1a1a1a;stroke-width:0.492057;stroke-dasharray:none;stroke-opacity:1"
         d="m 97.354087,129.57825 -1.414398,0.13924 0.587236,1.36966 z"
         id="path80" /><path
         style="fill:#80ffd4;fill-opacity:1;stroke:#1a1a1a;stroke-width:0.492057;stroke-dasharray:none;stroke-opacity:1"
         d="m 73.159413,130.52646 -0.04669,-2.27493 -1.590348,1.54315 0.554261,1.30834 z"
         id="path81" /><path
         style="fill:#80ffd4;fill-opacity:1;stroke:#1a1a1a;stroke-width:0.492057;stroke-dasharray:none;stroke-opacity:1"
         d="m 68.289669,115.50978 -0.372875,-1.28161 -1.304737,1.49255 z"
         id="path82" /><path
         style="fill:#80ffd4;fill-opacity:1;stroke:#1a1a1a;stroke-width:0.492057;stroke-dasharray:none;stroke-opacity:1"
         d="m 71.774484,131.83529 -3.026809,0.16933 2.554593,2.21496 z"
         id="path85" /><path
         style="fill:#80ffd4;fill-opacity:1;stroke:#1a1a1a;stroke-width:0.492057;stroke-dasharray:none;stroke-opacity:1"
         d="m 66.493011,121.64905 -4.050237,0.55961 2.353018,2.44694 z"
         id="path88" /><path
         style="fill:#80ffd4;fill-opacity:1;stroke:#1a1a1a;stroke-width:0.492057;stroke-dasharray:none;stroke-opacity:1"
         d="m 70.017558,130.51804 -0.429147,-2.72671 -2.090729,-0.56013 z"
         id="path90" /><path
         style="fill:#80ffd4;fill-opacity:1;stroke:#1a1a1a;stroke-width:0.492057;stroke-dasharray:none;stroke-opacity:1"
         d="m 90.560129,133.1351 3.622342,1.16862 -0.215363,-3.16895 z"
         id="path94" /><path
         style="fill:#80ffd4;fill-opacity:1;stroke:#1a1a1a;stroke-width:0.492057;stroke-dasharray:none;stroke-opacity:1"
         d="m 96.353683,133.31466 -1.686442,1.9235 2.37885,-0.5252 0.568442,-1.35967 z"
         id="path95" /><path
         style="fill:#80ffd4;fill-opacity:1;stroke:#1a1a1a;stroke-width:0.492057;stroke-dasharray:none;stroke-opacity:1"
         d="m 102.81637,122.47357 -0.57612,1.97583 -0.81554,-1.63658 z"
         id="path96" /><path
         style="fill:#80ffd4;fill-opacity:1;stroke:#1a1a1a;stroke-width:0.492057;stroke-dasharray:none;stroke-opacity:1"
         d="m 99.066696,123.50086 -0.51354,-1.31924 -1.15434,1.97745 z"
         id="path97" /><path
         style="fill:#80ffd4;fill-opacity:1;stroke:#1a1a1a;stroke-width:0.492057;stroke-dasharray:none;stroke-opacity:1"
         d="m 95.378969,118.57058 0.27521,-1.30609 -1.854225,0.70144 z"
         id="path98" /><path
         style="fill:#80ffd4;fill-opacity:1;stroke:#1a1a1a;stroke-width:0.492057;stroke-dasharray:none;stroke-opacity:1"
         d="m 101.11462,121.3358 0.61116,-1.07095 -1.854205,0.70143 z"
         id="path99" /><path
         style="fill:#80ffd4;fill-opacity:1;stroke:#1a1a1a;stroke-width:0.492057;stroke-dasharray:none;stroke-opacity:1"
         d="m 99.436145,119.50353 -2.232801,1.21867 0.917389,-1.64468 z"
         id="path100" /><path
         style="fill:#80ffd4;fill-opacity:1;stroke:#1a1a1a;stroke-width:0.492057;stroke-dasharray:none;stroke-opacity:1"
         d="m 94.994838,121.08011 0.843223,-1.25508 -2.651182,0.93579 z"
         id="path101" /><path
         style="fill:#80ffd4;fill-opacity:1;stroke:#1a1a1a;stroke-width:0.492057;stroke-dasharray:none;stroke-opacity:1"
         d="m 88.879298,117.69627 1.39979,-0.85748 -1.982045,-0.37802 z"
         id="path102" /><path
         style="fill:#80ffd4;fill-opacity:1;stroke:#1a1a1a;stroke-width:0.492057;stroke-dasharray:none;stroke-opacity:1"
         d="m 91.445349,119.68008 1.425716,-0.51368 -1.982009,-0.37801 z"
         id="path103" /><path
         style="fill:#80ffd4;fill-opacity:1;stroke:#1a1a1a;stroke-width:0.492057;stroke-dasharray:none;stroke-opacity:1"
         d="m 97.96084,127.23028 -2.735753,-3.88854 -0.82963,5.23742 z"
         id="path104" /><path
         style="fill:#80ffd4;fill-opacity:1;stroke:#1a1a1a;stroke-width:0.492057;stroke-dasharray:none;stroke-opacity:1"
         d="m 63.850362,116.41635 -4.050229,0.5596 2.353009,2.44694 z"
         id="path105" /><path
         style="fill:#80ffd4;fill-opacity:1;stroke:#1a1a1a;stroke-width:0.492057;stroke-dasharray:none;stroke-opacity:1"
         d="m 67.175593,121.94064 1.492904,0.79997 -0.594293,1.4083 z"
         id="path106" /><path
         style="fill:#80ffd4;fill-opacity:1;stroke:#1a1a1a;stroke-width:0.492057;stroke-dasharray:none;stroke-opacity:1"
         d="m 59.572031,121.49959 -0.372875,-1.28161 -1.304729,1.49255 z"
         id="path107" /><path
         style="fill:#80ffd4;fill-opacity:1;stroke:#1a1a1a;stroke-width:0.492057;stroke-dasharray:none;stroke-opacity:1"
         d="m 64.379545,120.229 2.16086,0.26074 -1.874846,-2.87444 z"
         id="path109" /><path
         style="fill:#80ffd4;fill-opacity:1;stroke:#1a1a1a;stroke-width:0.492057;stroke-dasharray:none;stroke-opacity:1"
         d="m 87.262548,123.63717 -2.587029,0.62552 3.637032,0.49601 z"
         id="path114" /><path
         style="fill:#80ffd4;fill-opacity:1;stroke:#1a1a1a;stroke-width:0.492057;stroke-dasharray:none;stroke-opacity:1"
         d="m 90.202466,122.84026 0.312938,1.43737 2.085146,-0.42387 z"
         id="path115" /><path
         style="fill:#80ffd4;fill-opacity:1;stroke:#1a1a1a;stroke-width:0.492057;stroke-dasharray:none;stroke-opacity:1"
         d="m 91.393165,120.35315 -4.975426,-1.67067 -0.403575,2.91832 z"
         id="path116" /><path
         style="fill:#80ffd4;fill-opacity:1;stroke:#1a1a1a;stroke-width:0.492057;stroke-dasharray:none;stroke-opacity:1"
         d="m 92.766158,121.77392 -1.897309,-0.61061 0.676835,1.39248 z"
         id="path117" /></g></g></svg>
