<?xml version="1.0" encoding="UTF-8" standalone="no"?>
<!-- Created with Inkscape (http://www.inkscape.org/) -->

<svg
   width="26.4594mm"
   height="14.504476mm"
   viewBox="0 0 26.4594 14.504476"
   version="1.1"
   id="svg1"
   xml:space="preserve"
   xmlns="http://www.w3.org/2000/svg"
   xmlns:svg="http://www.w3.org/2000/svg"><defs
     id="defs1" /><g
     id="layer2"
     style="display:inline"
     transform="translate(-79.375004,-191.18527)"><g
       id="g271"
       transform="matrix(0.35949287,0,0,0.35887348,115.43094,143.99382)"
       style="stroke-width:2.7841"><path
         style="fill:#a9afa9;fill-opacity:1;stroke:#000000;stroke-width:0.736624"
         d="m -153.039,182.41145 h 27.68959 V 178.518 c -2.02679,-0.19889 -4.71666,-1.38734 -5.3788,-3.403 -2.20923,-6.72528 -2.48127,-19.49584 7.71741,-19.78463 9.90631,-0.28051 22.42938,-9.27313 22.3571,-9.30767 h -42.28204 v 3.83532 h -30.589 c 0.0794,11.00632 10.15606,12.31917 20.53298,11.08501 7.91948,-0.94189 8.81281,9.0495 7.15614,14.03165 -0.84433,2.5392 -4.24099,3.37561 -7.20338,3.54332 z"
         id="path49" /><g
         id="g270"
         transform="rotate(-105,-102.50182,180.33651)"
         style="stroke-width:2.7841"><path
           style="display:inline;fill:#e8d4a8;fill-opacity:1;stroke:#000000;stroke-width:0.627156;stroke-opacity:1"
           d="m -237.13282,347.06718 c 0.85749,0.85749 2.78054,0.85749 3.63803,0 0.77174,-0.77174 0.37482,-2.18281 0,-3.27421 v -32.40401 a 0.76813089,0.76813089 45 0 0 -0.76813,-0.76813 h -2.10177 a 0.76813066,0.76813066 134.99999 0 0 -0.76813,0.76813 l 1e-5,32.40401 c -0.52917,1.0914 -0.77175,2.50247 -1e-5,3.27421 z"
           id="path265"
           transform="matrix(1.1788546,0,0,1.1702444,234.72872,-230.06202)" /><path
           style="display:inline;fill:#a9afa9;fill-opacity:1;stroke:#000000;stroke-width:0.875108;stroke-dasharray:none;stroke-opacity:1"
           d="m -137.07301,130.86101 21.67733,-8.87972 4.53037,-5.85644 -1.36728,-3.33783 -7.81614,-1.06018 -21.28985,8.72099 a 1.2799208,1.2799208 112.72444 0 0 -0.69923,1.66957 l 3.29523,8.04438 a 1.2799213,1.2799213 22.724434 0 0 1.66957,0.69923 z"
           id="path267"
           transform="matrix(0.77894439,0.31907149,-0.31908022,0.77892304,92.862146,85.80955)" /></g></g><g
       id="g299"><g
         id="g297"
         style="display:inline;stroke-width:1.64218"
         transform="matrix(-0.60654389,-0.07041642,-0.07081398,0.60313844,72.388971,101.60076)"><path
           style="fill:#e8d4a8;fill-opacity:1;stroke:#000000;stroke-width:0.621207;stroke-opacity:1"
           d="m -237.13282,347.06718 c 0.85749,0.85749 2.78054,0.85749 3.63803,0 0.77174,-0.77174 0.37482,-2.18281 0,-3.27421 v -24.44081 l -3.63803,4.85211 1e-5,18.82057 c 0,0.42423 -0.15662,1.0767 -0.28593,1.48038 -0.30024,0.93731 -0.32566,1.95038 0.28592,2.56196 z"
           id="path294"
           transform="matrix(0.02217332,0.69159445,-0.70662903,0.02277448,179.13413,299.5053)" /><path
           style="fill:#a9afa9;fill-opacity:1;stroke:#000000;stroke-width:0.434493;stroke-opacity:1"
           d="m -58.052285,148.71511 v -6.64996 l 26.157282,2.96131 -1.122232,4.03448 -0.742383,-0.89537 -0.790518,0.94176 -0.844398,-1.01841 -0.899154,1.07118 -0.960431,-1.15837 -1.022718,1.21838 -1.092415,-1.31756 -1.16325,1.38584 -1.242526,-1.49863 -1.323103,1.57627 -1.413274,-1.70456 -1.504924,1.79286 -1.607478,-1.93878 -1.711722,2.03924 -1.828377,-2.20522 -1.946951,2.31947 -2.079624,-2.50824 -2.214497,2.63819 z"
           id="path297" /></g><g
         id="g298"
         transform="matrix(0.35499259,0.00787175,-0.00778942,0.35093146,57.443685,110.1513)"
         style="stroke-width:2.83251"><path
           style="fill:#e8d4a8;fill-opacity:1;stroke:#000000;stroke-width:0.749437;stroke-opacity:1"
           d="m 70.043817,257.80176 54.816983,10.85115 -2.33861,-2.99342 -54.489576,-11.78657 z"
           id="path189" /><path
           style="fill:#e8d4a8;fill-opacity:1;stroke:#000000;stroke-width:0.749437;stroke-opacity:1"
           d="m 68.032614,253.87292 5.565888,-13.84457 55.284698,9.54151 -6.36101,16.08963 z"
           id="path190" /><path
           style="fill:#e8d4a8;fill-opacity:1;stroke:#000000;stroke-width:0.749437;stroke-opacity:1"
           d="m 128.8832,249.56986 1.21608,2.99342 -5.23848,16.08963 -2.33861,-2.99342 z"
           id="path191" /><path
           style="fill:none;fill-opacity:0.52381;stroke:#000000;stroke-width:0.749437;stroke-opacity:1"
           d="m 53.061901,412.66313 c 0.583391,0.64446 1.275223,1.19051 2.037577,1.60822 1.543747,0.84586 3.321543,1.14528 5.068495,1.36161 1.746951,0.21632 3.522809,0.36716 5.181691,0.95601 2.063537,0.73249 3.878602,2.14683 5.093229,3.96875"
           id="path192"
           transform="translate(16.536458,-162.58646)" /><path
           style="fill:none;fill-opacity:0.52381;stroke:#000000;stroke-width:0.749437;stroke-opacity:1"
           d="m 53.733493,410.89423 c 2.430008,1.52378 5.311487,2.31739 8.179006,2.25264 2.074143,-0.0468 4.117036,-0.52957 6.189383,-0.62776 1.036174,-0.0491 2.083653,-6.2e-4 3.091801,0.24372 1.008149,0.24434 1.97834,0.6912 2.757358,1.37618 1.094434,0.96232 1.744714,2.32009 2.628498,3.47887 0.441891,0.57939 0.952518,1.11791 1.572665,1.50051 0.620147,0.38259 1.359609,0.6008 2.08269,0.51072 0.685735,-0.0854 1.305241,-0.43432 1.923991,-0.74202 0.309375,-0.15385 0.624467,-0.29941 0.955387,-0.39878 0.33092,-0.0994 0.679566,-0.15174 1.023227,-0.11597 0.481374,0.0501 0.933488,0.272 1.314241,0.57076 0.380753,0.29876 0.695962,0.67247 0.986783,1.05932 0.58164,0.77371 1.104914,1.63789 1.932309,2.14023 0.679481,0.41253 1.492578,0.53416 2.284026,0.60824 0.791449,0.0741 1.599271,0.11192 2.346182,0.38395 0.705851,0.25708 1.334329,0.72262 1.785938,1.32292"
           id="path193"
           transform="translate(16.536458,-162.58646)" /><path
           style="fill:none;fill-opacity:0.52381;stroke:#000000;stroke-width:0.749437;stroke-opacity:1"
           d="m 72.327174,243.19065 c 0,0 14.58845,6.17913 17.961887,5.91455"
           id="path194" /><path
           style="fill:none;fill-opacity:0.52381;stroke:#000000;stroke-width:0.749437;stroke-opacity:1"
           d="m 92.604165,245.33489 c 0,0 3.96875,5.15937 6.680729,4.82864 2.711976,-0.33072 0.727606,-1.71979 2.711976,-1.32291 1.98438,0.39687 4.10104,0.66146 4.10104,0.66146"
           id="path195" /><path
           style="fill:none;fill-opacity:0.52381;stroke:#000000;stroke-width:0.749437;stroke-opacity:1"
           d="m 106.29635,255.25676 c 0,0 7.80521,4.0349 8.33438,4.8948 1.17755,1.91533 6.50599,2.46872 8.84417,3.09811"
           id="path196" /><path
           style="fill:#e8d4a8;fill-opacity:1;stroke:#000000;stroke-width:0.749437;stroke-opacity:1"
           d="m 112.31562,252.87552 c 0,0 6.08542,-2.31511 6.94532,-0.59531 0.85989,1.71979 2.64583,3.10885 3.77031,3.10885 1.12448,0 3.47785,0.18588 3.47785,0.18588"
           id="path198" /></g></g></g></svg>
