<?xml version="1.0" encoding="UTF-8" standalone="no"?>
<!-- Created with Inkscape (http://www.inkscape.org/) -->

<svg
   width="25.177223mm"
   height="26.458397mm"
   viewBox="0 0 25.177223 26.458397"
   version="1.1"
   id="svg1"
   xml:space="preserve"
   xmlns="http://www.w3.org/2000/svg"
   xmlns:svg="http://www.w3.org/2000/svg"><defs
     id="defs1" /><g
     id="layer2"
     style="display:inline"
     transform="translate(-0.64055529,-185.20834)"><path
       style="fill:#e8d4a8;fill-opacity:1;stroke:#000000;stroke-width:0.378639;stroke-opacity:1"
       d="m -237.13282,347.06718 c 0.85749,0.85749 2.78054,0.85749 3.63803,0 0.77174,-0.77174 0.37482,-2.18281 0,-3.27421 v -32.40401 a 0.76813089,0.76813089 45 0 0 -0.76813,-0.76813 h -2.10177 a 0.76813066,0.76813066 134.99999 0 0 -0.76813,0.76813 l 1e-5,32.40401 c -0.52917,1.0914 -0.77175,2.50247 -1e-5,3.27421 z"
       id="path154-1-3"
       transform="matrix(0.69141777,0,0,0.70620557,175.9466,-60.478461)" /><g
       id="g261"
       transform="matrix(0.59295366,0,0,0.59447941,51.671151,102.59629)"
       style="stroke-width:1.6843"><g
         id="g259"
         transform="translate(-23.944792,-50.403125)"
         style="stroke-width:1.6843"><path
           style="fill:#e8d4a8;fill-opacity:1;stroke:#000000;stroke-width:0.44564;stroke-dasharray:none;stroke-opacity:1"
           d="m -50.392079,233.65153 c 2.609775,-2.3279 1.421833,-5.92822 1.785854,-9.4149 l 0.561266,-4.91108 3.88209,0.23386 -0.280633,4.58367 c -0.107663,1.15371 -0.174016,2.29089 0.09922,3.4446 -0.808043,0.33544 -1.671208,0.81969 -2.391056,1.41971 0.728981,0.33875 1.524108,0.47907 2.385381,0.42095 0.406297,1.43216 0.350341,2.9018 2.291836,4.20949 z"
           id="path1" /><path
           style="fill:#8fff44;fill-opacity:1;stroke:#000000;stroke-width:0.44564;stroke-dasharray:none;stroke-opacity:1"
           d="m -47.664134,222.31025 c -0.317148,0.95163 -0.771476,1.81181 -2.133203,2.06706 0.09414,-1.11238 -0.06785,-2.22374 -2.166276,-2.69544 -0.35829,0.75516 -0.87092,1.46623 -1.537891,2.1332 -1.019748,-0.73311 -1.752865,-1.53237 -2.199349,-2.39778 -1.242155,0.91325 -2.470348,2.11974 -3.753776,2.16627 0.611849,-0.46853 0.892969,-1.06935 0.84336,-1.80247 -0.986676,0.62287 -1.929254,1.00321 -2.827735,1.14101 3.447979,-3.22784 5.685049,-7.13232 8.383984,-10.74869 l 14.254427,-0.1323 c 1.414555,3.87866 4.088445,7.56843 6.300391,11.32748 -2.082456,0.0615 -4.352506,0.48107 -5.986198,-0.3142 -0.03858,0.30868 0.07717,0.63941 0.347265,0.99219 -1.386288,0.0965 -1.843767,-0.36438 -2.629296,-0.62838 -0.181901,0.56224 -0.01102,1.27882 0.51263,2.14974 -2.619724,-0.30654 -2.651966,-1.55972 -3.638021,-2.46394 -0.573685,0.0271 -0.798391,0.64907 -1.405598,1.2237 -1.354688,-0.38083 -1.86492,-1.31094 -2.364714,-2.01745 z"
           id="path42" /><path
           style="fill:#8fff44;fill-opacity:1;stroke:#000000;stroke-width:0.44564;stroke-dasharray:none;stroke-opacity:1"
           d="m -56.460914,213.66229 21.464322,-0.21498 c -2.593449,-3.28919 -5.094361,-6.63126 -7.077604,-10.26914 l -9.161197,0.14883 c -1.68291,3.47456 -3.293302,6.98538 -5.225521,10.33529 z"
           id="path43" /><path
           style="fill:#8fff44;fill-opacity:1;stroke:#000000;stroke-width:0.44564;stroke-dasharray:none;stroke-opacity:1"
           d="m -54.146427,203.97407 15.296224,-0.19843 c -3.314883,-4.52401 -5.977826,-9.2925 -8.96276,-13.94024 -2.110429,4.71299 -3.56583,9.51331 -6.333464,14.13867 z"
           id="path44" /></g><g
         id="g260"
         transform="matrix(0.49842166,0.25418128,-0.25314902,0.50045406,4.6417062,96.795855)"
         style="stroke-width:3.00681"><path
           style="display:inline;fill:#e8d4a8;fill-opacity:1;stroke:#000000;stroke-width:0.674367;stroke-opacity:1"
           d="m -237.13282,347.06718 c 0.85749,0.85749 2.78054,0.85749 3.63803,0 0.77174,-0.77174 0.37482,-2.18281 0,-3.27421 v -32.40401 a 0.76813089,0.76813089 45 0 0 -0.76813,-0.76813 h -2.10177 a 0.76813066,0.76813066 134.99999 0 0 -0.76813,0.76813 l 1e-5,32.40401 c -0.52917,1.0914 -0.77175,2.50247 -1e-5,3.27421 z"
           id="path256"
           transform="matrix(1.184144,0,0,1.1752713,248.29037,-222.85314)" /><g
           id="g255"
           transform="matrix(0.71521823,0,0,0.71521839,-80.382584,25.243714)"
           style="display:inline;stroke-width:1.11233;stroke-dasharray:none"><path
             style="display:inline;fill:#a9afa9;fill-opacity:1;stroke:#000000;stroke-width:1.11233;stroke-dasharray:none;stroke-opacity:1"
             d="m 67.435676,154.64896 c -8.103004,-1.4109 -15.944476,-3.08787 -21.695833,-8.06979 -4.174481,-1.71427 -19.191023,26.29973 3.505729,33.50286 l 2.612761,-5.25859 c -10.093091,-11.16001 8.995002,-12.06531 15.015104,-10.12031"
             id="path227" /><path
             style="display:inline;fill:#e6f0e6;fill-opacity:1;stroke:#000000;stroke-width:1.11233;stroke-dasharray:none;stroke-opacity:1"
             d="m 48.683333,181.27266 0.562239,-1.19063 C 27.047876,166.77654 45.066288,146.10864 45.739843,146.57917 l -1.058333,-1.35599 c -11.110092,7.07659 -12.322981,32.33325 4.001823,36.04948 z"
             id="path254" /><path
             style="fill:#a9afa9;fill-opacity:1;stroke:#000000;stroke-width:1.11233;stroke-dasharray:none;stroke-opacity:1"
             d="m 66.873437,164.70313 c 2.072569,0.42994 4.101041,0.46301 6.085416,0.0992 l 0.03307,-9.8888 c -1.014236,-1.01424 -2.866319,-1.10243 -5.55625,-0.26458 z"
             id="path255" /></g></g></g></g></svg>
