<?xml version="1.0" encoding="UTF-8" standalone="no"?>
<!-- Created with Inkscape (http://www.inkscape.org/) -->

<svg
   width="26.458572mm"
   height="21.444752mm"
   viewBox="0 0 26.458572 21.444752"
   version="1.1"
   id="svg1"
   xml:space="preserve"
   xmlns="http://www.w3.org/2000/svg"
   xmlns:svg="http://www.w3.org/2000/svg"><defs
     id="defs1" /><g
     id="layer2"
     style="display:inline"
     transform="translate(-26.458335,-187.715)"><g
       id="g265"
       transform="matrix(1,0,0,1.0000014,139.33882,-87.653587)"><path
         style="fill:#a9afa9;fill-opacity:1;stroke:#000000;stroke-width:0.264583;stroke-opacity:1"
         d="m -92.721558,286.48039 0.206566,1.99011 -2.147075,-0.47448 z"
         id="path158" /><path
         style="fill:#a9afa9;fill-opacity:1;stroke:#000000;stroke-width:0.264583;stroke-opacity:1"
         d="m -95.783055,290.29836 -0.788356,1.72683 -1.063152,-1.34558 z"
         id="path159" /><g
         id="g264"
         transform="matrix(0.74666878,0,0,0.74636658,-28.546601,69.875673)"
         style="stroke-width:1.33955"><path
           style="fill:#a9afa9;fill-opacity:1;stroke:#000000;stroke-width:0.354423;stroke-opacity:1"
           d="m -77.68857,287.41498 -10e-7,16.46381 h -19.64431 l 3.367594,-3.36762 4.209495,-0.60804 2.71279,-3.88208 2.432151,10e-6 v -3.78855 l 3.274053,-3.64823 z"
           id="path161" /></g><g
         id="g263"
         transform="matrix(0.63106195,0.39893131,-0.39909283,0.63080654,-4.4377298,186.29751)"
         style="stroke-width:1.33955"><path
           style="display:inline;fill:#e8d4a8;fill-opacity:1;stroke:#000000;stroke-width:0.507207;stroke-opacity:1"
           d="m -237.13282,347.06718 c 0.85749,0.85749 2.78054,0.85749 3.63803,0 0.77174,-0.77174 0.37482,-2.18281 0,-3.27421 v -32.40401 a 0.76813089,0.76813089 45 0 0 -0.76813,-0.76813 h -2.10177 a 0.76813066,0.76813066 134.99999 0 0 -0.76813,0.76813 l 1e-5,32.40401 c -0.52917,1.0914 -0.77175,2.50247 -1e-5,3.27421 z"
           id="path261"
           transform="matrix(0.69141777,0,0,0.70620557,118.25028,-46.186688)" /><path
           id="path263"
           style="display:inline;fill:#a9afa9;fill-opacity:1;stroke:#000000;stroke-width:0.35439;stroke-dasharray:none;stroke-opacity:1"
           d="m -44.449865,173.83693 c -4.802935,0 -10.9128,0.0498 -13.00148,6.21091 3.26205,-1.61071 6.537428,-3.68055 10.703439,-2.89843 0,0 0.03024,1.01963 0.37266,1.325 0.485179,0.43268 1.272883,0.42819 1.932699,0.42766 0.655045,-5.3e-4 1.43287,0.005 1.918056,-0.42766 0.342437,-0.30537 0.372652,-1.325 0.372652,-1.325 4.166018,-0.78212 7.44139,1.28772 10.703447,2.89843 -2.088667,-6.16114 -8.198544,-6.21091 -13.001473,-6.21091 z" /></g></g><g
       id="g271"
       transform="matrix(0.35949287,0,0,0.35887348,115.43094,143.99382)"
       style="stroke-width:2.7841"><path
         style="fill:#a9afa9;fill-opacity:1;stroke:#000000;stroke-width:0.736624"
         d="m -153.039,182.41145 h 27.68959 V 178.518 c -2.02679,-0.19889 -4.71666,-1.38734 -5.3788,-3.403 -2.20923,-6.72528 -2.48127,-19.49584 7.71741,-19.78463 9.90631,-0.28051 22.42938,-9.27313 22.3571,-9.30767 h -42.28204 v 3.83532 h -30.589 c 0.0794,11.00632 10.15606,12.31917 20.53298,11.08501 7.91948,-0.94189 8.81281,9.0495 7.15614,14.03165 -0.84433,2.5392 -4.24099,3.37561 -7.20338,3.54332 z"
         id="path49" /><g
         id="g270"
         transform="rotate(-105,-102.50182,180.33651)"
         style="stroke-width:2.7841"><path
           style="display:inline;fill:#e8d4a8;fill-opacity:1;stroke:#000000;stroke-width:0.627156;stroke-opacity:1"
           d="m -237.13282,347.06718 c 0.85749,0.85749 2.78054,0.85749 3.63803,0 0.77174,-0.77174 0.37482,-2.18281 0,-3.27421 v -32.40401 a 0.76813089,0.76813089 45 0 0 -0.76813,-0.76813 h -2.10177 a 0.76813066,0.76813066 134.99999 0 0 -0.76813,0.76813 l 1e-5,32.40401 c -0.52917,1.0914 -0.77175,2.50247 -1e-5,3.27421 z"
           id="path265"
           transform="matrix(1.1788546,0,0,1.1702444,234.72872,-230.06202)" /><path
           style="display:inline;fill:#a9afa9;fill-opacity:1;stroke:#000000;stroke-width:0.875108;stroke-dasharray:none;stroke-opacity:1"
           d="m -137.07301,130.86101 21.67733,-8.87972 4.53037,-5.85644 -1.36728,-3.33783 -7.81614,-1.06018 -21.28985,8.72099 a 1.2799208,1.2799208 112.72444 0 0 -0.69923,1.66957 l 3.29523,8.04438 a 1.2799213,1.2799213 22.724434 0 0 1.66957,0.69923 z"
           id="path267"
           transform="matrix(0.77894439,0.31907149,-0.31908022,0.77892304,92.862146,85.80955)" /></g></g></g></svg>
