<?xml version="1.0" encoding="UTF-8" standalone="no"?>
<!-- Created with Inkscape (http://www.inkscape.org/) -->

<svg
   width="26.459213mm"
   height="26.111994mm"
   viewBox="0 0 26.459213 26.111994"
   version="1.1"
   id="svg1"
   xml:space="preserve"
   xmlns="http://www.w3.org/2000/svg"
   xmlns:svg="http://www.w3.org/2000/svg"><defs
     id="defs1" /><g
     id="layer2"
     style="display:inline"
     transform="translate(-26.458333,-53.263009)"><g
       id="g86"
       transform="matrix(0.71521824,0,0,0.71521839,-25.878416,-50.427119)"
       style="stroke-width:0.369936;stroke-dasharray:none"><path
         style="display:inline;fill:#a9afa9;fill-opacity:1;stroke:#000000;stroke-width:0.369936;stroke-dasharray:none;stroke-opacity:1"
         d="m 67.435676,154.64896 c -8.103004,-1.4109 -15.944476,-3.08787 -21.695833,-8.06979 -4.174481,-1.71427 -19.191023,26.29973 3.505729,33.50286 l 2.612761,-5.25859 c -10.093091,-11.16001 8.995002,-12.06531 15.015104,-10.12031"
         id="path83" /><path
         style="display:inline;fill:#e6f0e6;fill-opacity:1;stroke:#000000;stroke-width:0.369936;stroke-dasharray:none;stroke-opacity:1"
         d="m 48.683333,181.27266 0.562239,-1.19063 C 27.047876,166.77654 45.066288,146.10864 45.739843,146.57917 l -1.058333,-1.35599 c -11.110092,7.07659 -12.322981,32.33325 4.001823,36.04948 z"
         id="path84" /><path
         style="fill:#a9afa9;fill-opacity:1;stroke:#000000;stroke-width:0.369936;stroke-dasharray:none;stroke-opacity:1"
         d="m 66.873437,164.70313 c 2.072569,0.42994 4.101041,0.46301 6.085416,0.0992 l 0.03307,-9.8888 c -1.014236,-1.01424 -2.866319,-1.10243 -5.55625,-0.26458 z"
         id="path86" /></g><g
       id="g93"
       transform="matrix(0.71521824,0,0,0.71521839,0.57991753,-50.427119)"
       style="stroke-width:0.369936;stroke-dasharray:none"><path
         style="display:inline;fill:#ededba;fill-opacity:1;stroke:#000000;stroke-width:0.369936;stroke-dasharray:none;stroke-opacity:1"
         d="m 67.435676,154.64896 c -8.103004,-1.4109 -15.944476,-3.08787 -21.695833,-8.06979 -4.174481,-1.71427 -19.191023,26.29973 3.505729,33.50286 l 2.612761,-5.25859 c -10.093091,-11.16001 8.995002,-12.06531 15.015104,-10.12031"
         id="path91" /><path
         style="display:inline;fill:#f7f7e3;fill-opacity:1;stroke:#000000;stroke-width:0.369936;stroke-dasharray:none;stroke-opacity:1"
         d="m 48.683333,181.27266 0.562239,-1.19063 C 27.047876,166.77654 45.066288,146.10864 45.739843,146.57917 l -1.058333,-1.35599 c -11.110092,7.07659 -12.322981,32.33325 4.001823,36.04948 z"
         id="path92" /><path
         style="fill:#ededba;fill-opacity:1;stroke:#000000;stroke-width:0.369936;stroke-dasharray:none;stroke-opacity:1"
         d="m 66.873437,164.70313 c 2.072569,0.42994 4.101041,0.46301 6.085416,0.0992 l 0.03307,-9.8888 c -1.014236,-1.01424 -2.866319,-1.10243 -5.55625,-0.26458 z"
         id="path93" /></g><g
       id="g111"
       transform="matrix(0.71521824,0,0,0.71521839,27.038251,-50.427119)"
       style="stroke-width:0.369936;stroke-dasharray:none"><path
         style="display:inline;fill:#ffff99;fill-opacity:0.498039;stroke:#000000;stroke-width:0.369936;stroke-dasharray:none;stroke-opacity:1"
         d="m 67.435676,154.64896 c -8.103004,-1.4109 -15.944476,-3.08787 -21.695833,-8.06979 -4.174481,-1.71427 -19.191023,26.29973 3.505729,33.50286 l 2.612761,-5.25859 c -10.093091,-11.16001 8.995002,-12.06531 15.015104,-10.12031"
         id="path108" /><path
         style="display:inline;fill:#fbfbe6;fill-opacity:1;stroke:#000000;stroke-width:0.369936;stroke-dasharray:none;stroke-opacity:1"
         d="m 48.683333,181.27266 0.562239,-1.19063 C 27.047876,166.77654 45.066288,146.10864 45.739843,146.57917 l -1.058333,-1.35599 c -11.110092,7.07659 -12.322981,32.33325 4.001823,36.04948 z"
         id="path110" /><path
         style="fill:#ffff99;fill-opacity:0.498039;stroke:#000000;stroke-width:0.369936;stroke-dasharray:none;stroke-opacity:1"
         d="m 66.873437,164.70313 c 2.072569,0.42994 4.101041,0.46301 6.085416,0.0992 l 0.03307,-9.8888 c -1.014236,-1.01424 -2.866319,-1.10243 -5.55625,-0.26458 z"
         id="path111" /></g></g></svg>
