<?xml version="1.0" encoding="UTF-8" standalone="no"?>
<!-- Created with Inkscape (http://www.inkscape.org/) -->

<svg
   width="26.458605mm"
   height="8.109437mm"
   viewBox="0 0 26.458605 8.109437"
   version="1.1"
   id="svg1"
   xml:space="preserve"
   xmlns="http://www.w3.org/2000/svg"
   xmlns:svg="http://www.w3.org/2000/svg"><defs
     id="defs1" /><g
     id="layer2"
     style="display:inline"
     transform="translate(-79.374997,-141.35578)"><path
       style="fill:#ffff99;fill-opacity:1;stroke:#000000;stroke-width:0.264583;stroke-opacity:1"
       d="m 53.048958,148.15384 v -6.64996 l 26.157282,2.96131 -1.122232,4.03448 -0.742383,-0.89537 -0.790518,0.94176 -0.844398,-1.01841 -0.899154,1.07118 -0.960431,-1.15837 -1.022718,1.21838 -1.092415,-1.31756 -1.16325,1.38584 -1.242526,-1.49863 -1.323103,1.57627 -1.413274,-1.70456 -1.504924,1.79286 -1.607478,-1.93878 -1.711723,2.03924 -1.828376,-2.20522 -1.946951,2.31947 -2.079624,-2.50824 -2.214497,2.63819 z"
       id="path206" /><path
       style="fill:#52ffc2;fill-opacity:1;stroke:#000000;stroke-width:0.264583;stroke-opacity:1"
       d="m 79.507295,148.15384 v -6.64996 l 26.157285,2.96131 -1.12224,4.03448 -0.74238,-0.89537 -0.79052,0.94176 -0.84439,-1.01841 -0.89916,1.07118 -0.96043,-1.15837 -1.022717,1.21838 -1.092415,-1.31756 -1.16325,1.38584 -1.242526,-1.49863 -1.323103,1.57627 -1.413274,-1.70456 -1.504924,1.79286 -1.607478,-1.93878 -1.711723,2.03924 -1.828376,-2.20522 -1.946951,2.31947 -2.079624,-2.50824 -2.214497,2.63819 z"
       id="path209" /><path
       style="fill:#005774;fill-opacity:1;stroke:#000000;stroke-width:0.264583;stroke-opacity:1"
       d="m 105.96563,148.15384 v -6.64996 l 26.15728,2.96131 -1.12224,4.03448 -0.74238,-0.89537 -0.79052,0.94176 -0.84439,-1.01841 -0.89916,1.07118 -0.96043,-1.15837 -1.02272,1.21838 -1.09241,-1.31756 -1.16325,1.38584 -1.24253,-1.49863 -1.3231,1.57627 -1.41327,-1.70456 -1.50493,1.79286 -1.60748,-1.93878 -1.71172,2.03924 -1.82838,-2.20522 -1.94695,2.31947 -2.07962,-2.50824 -2.2145,2.63819 z"
       id="path212" /></g></svg>
