<?xml version="1.0" encoding="UTF-8" standalone="no"?>
<!-- Created with Inkscape (http://www.inkscape.org/) -->

<svg
   width="26.458591mm"
   height="6.6032066mm"
   viewBox="0 0 26.458591 6.6032066"
   version="1.1"
   id="svg1"
   xml:space="preserve"
   xmlns="http://www.w3.org/2000/svg"
   xmlns:svg="http://www.w3.org/2000/svg"><defs
     id="defs1" /><g
     id="layer2"
     style="display:inline"
     transform="translate(-105.83335,-89.302564)"><path
       id="path208"
       style="fill:#52ffc2;fill-opacity:1;stroke:#000000;stroke-width:0.264558;stroke-dasharray:none;stroke-opacity:1"
       d="m 92.604306,89.434843 c -4.802936,0 -10.912801,0.04976 -13.001481,6.210911 3.262051,-1.610705 6.537429,-3.680551 10.70344,-2.898423 0,0 0.03024,1.019623 0.37266,1.324995 0.485179,0.432678 1.272883,0.42819 1.932699,0.427656 0.655045,-5.25e-4 1.43287,0.005 1.918056,-0.427656 0.342437,-0.305372 0.372652,-1.324995 0.372652,-1.324995 4.166018,-0.782128 7.441388,1.287718 10.703448,2.898423 -2.08867,-6.16114 -8.198545,-6.210911 -13.001474,-6.210911 z" /><path
       id="path211"
       style="fill:#005774;fill-opacity:1;stroke:#000000;stroke-width:0.264558;stroke-dasharray:none;stroke-opacity:1"
       d="m 119.06264,89.434843 c -4.80294,0 -10.9128,0.04976 -13.00148,6.210911 3.26205,-1.610705 6.53742,-3.680551 10.70344,-2.898423 0,0 0.0302,1.019623 0.37266,1.324995 0.48517,0.432678 1.27288,0.42819 1.93269,0.427656 0.65505,-5.25e-4 1.43287,0.005 1.91806,-0.427656 0.34244,-0.305372 0.37265,-1.324995 0.37265,-1.324995 4.16602,-0.782128 7.44139,1.287718 10.70345,2.898423 -2.08867,-6.16114 -8.19854,-6.210911 -13.00147,-6.210911 z" /></g></svg>
