<?xml version="1.0" encoding="UTF-8" standalone="no"?>
<!-- Created with Inkscape (http://www.inkscape.org/) -->

<svg
   width="26.458595mm"
   height="6.6032066mm"
   viewBox="0 0 26.458595 6.6032066"
   version="1.1"
   id="svg1"
   xml:space="preserve"
   xmlns="http://www.w3.org/2000/svg"
   xmlns:svg="http://www.w3.org/2000/svg"><defs
     id="defs1" /><g
     id="layer2"
     style="display:inline"
     transform="translate(-26.458333,-89.302564)"><path
       id="path199"
       style="fill:#a9afa9;fill-opacity:1;stroke:#000000;stroke-width:0.264558;stroke-dasharray:none;stroke-opacity:1"
       d="m 13.229302,89.434843 c -4.8029355,0 -10.9128005,0.04976 -13.00148081,6.210911 3.26205091,-1.610705 6.53742891,-3.680551 10.70343981,-2.898423 0,0 0.03024,1.019623 0.37266,1.324995 0.485179,0.432678 1.272883,0.42819 1.932699,0.427656 0.655045,-5.25e-4 1.43287,0.005 1.918056,-0.427656 0.342437,-0.305372 0.372652,-1.324995 0.372652,-1.324995 4.166018,-0.782128 7.44139,1.287718 10.703447,2.898423 -2.088667,-6.16114 -8.198544,-6.210911 -13.001473,-6.210911 z" /><path
       id="path201"
       style="fill:#ededba;fill-opacity:1;stroke:#000000;stroke-width:0.264558;stroke-dasharray:none;stroke-opacity:1"
       d="m 39.687636,89.434843 c -4.802936,0 -10.912801,0.04976 -13.001481,6.210911 3.262051,-1.610705 6.537429,-3.680551 10.70344,-2.898423 0,0 0.03024,1.019623 0.37266,1.324995 0.485179,0.432678 1.272883,0.42819 1.932699,0.427656 0.655045,-5.25e-4 1.43287,0.005 1.918056,-0.427656 0.342437,-0.305372 0.372652,-1.324995 0.372652,-1.324995 4.166018,-0.782128 7.44139,1.287718 10.703447,2.898423 -2.088667,-6.16114 -8.198544,-6.210911 -13.001473,-6.210911 z" /><path
       id="path205"
       style="fill:#ffff99;fill-opacity:0.498039;stroke:#000000;stroke-width:0.264558;stroke-dasharray:none;stroke-opacity:1"
       d="m 66.145969,89.434843 c -4.802936,0 -10.912801,0.04976 -13.001481,6.210911 3.262051,-1.610705 6.537429,-3.680551 10.70344,-2.898423 0,0 0.03024,1.019623 0.37266,1.324995 0.485179,0.432678 1.272883,0.42819 1.932699,0.427656 0.655045,-5.25e-4 1.43287,0.005 1.918056,-0.427656 0.342437,-0.305372 0.372652,-1.324995 0.372652,-1.324995 4.166018,-0.782128 7.44139,1.287718 10.703447,2.898423 -2.088667,-6.16114 -8.198544,-6.210911 -13.001473,-6.210911 z" /></g></svg>
