<?xml version="1.0" encoding="UTF-8" standalone="no"?>
<!-- Created with Inkscape (http://www.inkscape.org/) -->

<svg
   width="26.459579mm"
   height="12.574586mm"
   viewBox="0 0 26.459579 12.574586"
   version="1.1"
   id="svg1"
   xml:space="preserve"
   xmlns="http://www.w3.org/2000/svg"
   xmlns:svg="http://www.w3.org/2000/svg"><defs
     id="defs1" /><g
     id="layer2"
     style="display:inline"
     transform="translate(-26.458332,-33.328498)"><g
       id="g253"
       style="fill:#c2b280;fill-opacity:1;stroke-width:0.266058;stroke-dasharray:none"
       transform="matrix(0.99444928,0,0,0.99444928,26.53267,7.0914242)"><path
         style="fill:#c2b280;fill-opacity:1;stroke:#000000;stroke-width:0.266058;stroke-dasharray:none;stroke-opacity:1"
         d="M 4.1036789,38.8935 24.499959,38.625671 c 1.40782,-0.915188 3.50993,-5.722693 -0.10301,-8.137885 l -6.09828,0.0412 0.76228,-2.946121 -4.63552,-0.103011 -1.00951,3.461176 -9.2710401,0.123614 z"
         id="path228" /><path
         style="fill:#c2b280;fill-opacity:1;stroke:#000000;stroke-width:0.266058;stroke-dasharray:none;stroke-opacity:1"
         d="m 14.425429,27.479859 c 0.13546,-1.445294 4.63921,-1.142412 4.63552,0.103011 -0.004,1.245423 -4.77097,1.342283 -4.63552,-0.103011 z"
         id="path229" /><path
         style="fill:#c2b280;fill-opacity:1;stroke:#000000;stroke-width:0.266058;stroke-dasharray:none;stroke-opacity:1"
         d="m 4.1448789,31.064649 c -4.90130996,-0.03302 -5.95501,7.931554 -0.0412,7.828851 5.9138101,-0.102704 4.94251,-7.79583 0.0412,-7.828851 z"
         id="path230" /><path
         style="fill:#c2b280;fill-opacity:1;stroke:#000000;stroke-width:2.41607;stroke-dasharray:none;stroke-opacity:1"
         d="m -201.86867,28.437477 c 2.50576,2.640032 6.08958,4.225187 9.72861,4.303041 2.96189,0.06337 5.85587,-0.822442 8.65727,-1.786292 2.80139,-0.963851 5.60818,-2.023543 8.55489,-2.329659 5.57768,-0.579431 11.04395,1.580203 16.1755,3.841493 5.13155,2.261291 10.39629,4.713322 16.00375,4.764585 3.84232,0.03513 7.59948,-1.068963 11.23269,-2.319738 3.63321,-1.250775 7.23986,-2.666067 11.03086,-3.292921 8.8227,-1.458859 17.70085,1.450111 26.56659,2.61924 3.594575,0.474018 7.226844,0.661894 10.851142,0.561266"
         id="path231"
         transform="matrix(0.11012055,0,0,0.11012019,30.989689,33.310292)" /><path
         style="fill:#c2b280;fill-opacity:1;stroke:#000000;stroke-width:2.41607;stroke-dasharray:none;stroke-opacity:1"
         d="m -200.93323,20.018487 c 0.91387,1.122082 2.21782,1.920107 3.63285,2.223327 1.41502,0.303219 2.93147,0.109564 4.22488,-0.539529 0.69163,-0.347092 1.31388,-0.815583 1.97195,-1.222737 0.65806,-0.407154 1.37385,-0.759757 2.144,-0.835238 0.54635,-0.05355 1.09881,0.03526 1.62612,0.18793 0.52731,0.152668 1.03379,0.368344 1.54236,0.575026 0.50857,0.206682 1.0232,0.405647 1.55954,0.522702 0.53634,0.117055 1.09868,0.149955 1.63299,0.02396 0.52132,-0.122929 0.99874,-0.392839 1.42317,-0.719553 0.42444,-0.326715 0.80085,-0.710633 1.17801,-1.09095 0.37716,-0.380317 0.75848,-0.760019 1.19058,-1.076526 0.4321,-0.316507 0.92013,-0.569708 1.44672,-0.667656 0.46264,-0.08605 0.94191,-0.04981 1.40105,0.05331 0.45915,0.103115 0.90084,0.271708 1.33571,0.451523 0.86974,0.35963 1.74819,0.773312 2.68882,0.804789 1.07071,0.03583 2.14603,-0.465987 2.80633,-1.309621"
         id="path232"
         transform="matrix(0.11012055,0,0,0.11012019,30.989689,33.310292)" /><path
         style="fill:#c2b280;fill-opacity:1;stroke:#000000;stroke-width:2.41607;stroke-dasharray:none;stroke-opacity:1"
         d="m -144.05827,16.089625 c 3.51079,-2.222335 8.02387,-2.78647 11.97367,-1.496709 1.52223,0.497066 2.94964,1.248486 4.45774,1.786889 1.50811,0.538403 3.15946,0.859804 4.70961,0.458175 1.50367,-0.389588 2.75105,-1.411304 3.9399,-2.411021 1.18886,-0.999718 2.4225,-2.032763 3.91782,-2.453284 1.12358,-0.31598 2.32793,-0.259999 3.46433,0.0063 1.13639,0.26625 2.2146,0.735649 3.26559,1.243304 2.10197,1.015309 4.22057,2.220437 6.55337,2.305128 1.788255,0.06492 3.532245,-0.542909 5.165983,-1.272958 1.633737,-0.73005 3.218741,-1.594332 4.936811,-2.094638 2.473767,-0.720367 5.109256,-0.65201 7.669512,-0.362978 2.560256,0.289032 5.098615,0.792373 7.671757,0.924244 3.286551,0.168433 6.603595,-0.278092 9.728613,-1.30962"
         id="path233"
         transform="matrix(0.11012055,0,0,0.11012019,30.989689,33.310292)" /><path
         style="fill:#c2b280;fill-opacity:1;stroke:#000000;stroke-width:2.41607;stroke-dasharray:none;stroke-opacity:1"
         d="m -201.86867,-0.18708867 c 2.2692,1.25106537 4.89719,1.84236297 7.48355,1.68379797 2.83094,-0.1735593 5.58439,-1.21944143 8.41899,-1.12253196 1.56486,0.0534996 3.11358,0.456052 4.67721,0.37417732 2.1047,-0.11020597 4.07801,-1.08823487 6.17393,-1.30962065 1.86545,-0.19704146 3.77953,0.2108648 5.61266,-0.18708867 0.66095,-0.14348629 1.29461,-0.38884424 1.93942,-0.59298984 0.6448,-0.2041456 1.3136,-0.3687515 1.98944,-0.3424535 0.7523,0.029273 1.4742,0.2930022 2.17101,0.5780905 0.69681,0.28508825 1.39127,0.59704445 2.13203,0.73153016 1.35279,0.24559962 2.74617,-0.11866995 4.11595,0 0.96011,0.0831789 1.88191,0.40093883 2.79762,0.70129901 0.9157,0.30036018 1.85154,0.5882931 2.81504,0.60832166 1.18085,0.0245467 2.32801,-0.35355114 3.45412,-0.70976405 1.12611,-0.35621291 2.29118,-0.6985604 3.46816,-0.59985662 1.32886,0.11144141 2.53934,0.77188061 3.71938,1.39300934 1.18004,0.6211287 2.43065,1.2307551 3.76417,1.226232 1.02175,-0.00347 2.00568,-0.369664 2.94141,-0.7800231 0.93573,-0.4103591 1.85996,-0.8735423 2.85834,-1.09086356 1.54096,-0.33542863 3.14459,-0.0622782 4.68525,0.27455013 1.54066,0.33682832 3.0941,0.73963953 4.66918,0.66089313 1.57851,-0.078918 3.10051,-0.63926936 4.67722,-0.74835461 0.6846,-0.0473643 1.37179,-0.009034 2.05797,0 1.37377,0.018087 2.74613,-0.0813528 4.11595,-0.18708865 0.68682,-0.0530158 1.37371,-0.10764889 2.05798,-0.18708867 1.77663,-0.20625602 3.53415,-0.58013357 5.23848,-1.122532 2.80646,-0.89314627 5.497275,-2.24839587 8.418989,-2.61924137 2.832074,-0.3594678 5.70578,0.2346452 8.418992,1.122532 2.729185,0.8931139 5.373981,2.08905243 8.193513,2.63342524 1.409766,0.2721864 2.861005,0.37754737 4.284572,0.19051178 1.423567,-0.18703559 2.820826,-0.67493738 3.985716,-1.51431632 0.646774,-0.4660426 1.217757,-1.0370248 1.6838,-1.6837981"
         id="path234"
         transform="matrix(0.11012055,0,0,0.11012019,30.989689,33.310292)" /><path
         style="fill:#c2b280;fill-opacity:1;stroke:#000000;stroke-width:2.41607;stroke-dasharray:none;stroke-opacity:1"
         d="m -202.9912,-10.664054 c 2.24937,2.0759272 5.36398,3.1833426 8.41899,2.9934187 0.68756,-0.042744 1.3702,-0.1478806 2.05797,-0.1870888 1.83082,-0.1043708 3.65868,0.2605362 5.42027,0.7700336 1.76159,0.5094974 3.47882,1.1644697 5.24379,1.6621191 5.40985,1.525354 11.24104,1.525354 16.65089,0"
         id="path235"
         transform="matrix(0.11012055,0,0,0.11012019,30.989689,33.310292)" /><path
         style="fill:#c2b280;fill-opacity:1;stroke:#000000;stroke-width:2.41607;stroke-dasharray:none;stroke-opacity:1"
         d="m -109.07269,-6.5481032 c 9.237322,1.1861683 18.610378,1.3119811 27.87621,0.3741771 4.672425,-0.4729007 9.410939,-1.2133558 14.03165,-0.3741774 4.240143,0.7700627 8.223664,2.8946075 11.225318,5.9868376"
         id="path236"
         transform="matrix(0.11012055,0,0,0.11012019,30.989689,32.910513)" /><path
         style="fill:#c2b280;fill-opacity:1;stroke:#000000;stroke-width:2.41607;stroke-dasharray:none;stroke-opacity:1"
         d="m -151.916,-18.521778 c -0.49352,-0.29884 -0.90269,-0.735338 -1.16904,-1.247117 -0.26636,-0.511779 -0.38912,-1.09734 -0.35074,-1.673005 0.0384,-0.575666 0.23778,-1.139749 0.56971,-1.611642 0.33194,-0.471893 0.79543,-0.850212 1.32425,-1.080896 0.49352,-0.215285 1.03174,-0.300965 1.55411,-0.431496 0.52237,-0.130531 1.05104,-0.318003 1.43931,-0.691036 0.42737,-0.4106 0.63658,-1.003827 0.7129,-1.591547 0.0763,-0.58772 0.034,-1.183396 0.0355,-1.77605 0.004,-1.877611 0.45709,-3.752653 1.30961,-5.425569"
         id="path237"
         transform="matrix(0.11012055,0,0,0.11012019,30.989689,33.310292)" /><path
         style="fill:#c2b280;fill-opacity:1;stroke:#000000;stroke-width:2.41607;stroke-dasharray:none;stroke-opacity:1"
         d="m -135.26511,-23.386083 c -0.56325,-3.002904 0.051,-6.210781 1.6838,-8.793169 0.90842,-1.436759 2.11766,-2.687475 2.84233,-4.225126 1.02081,-2.166027 0.94922,-4.814554 -0.18709,-6.92228"
         id="path238"
         transform="matrix(0.11012055,0,0,0.11012019,30.989689,33.310292)" /><path
         style="fill:#c2b280;fill-opacity:1;stroke:#000000;stroke-width:0.266058;stroke-dasharray:none;stroke-opacity:1"
         d="m 17.804209,31.703318 0.49446,-1.174327 0.53566,1.091918"
         id="path239" /><path
         style="fill:#c2b280;fill-opacity:1;stroke:#000000;stroke-width:0.266058;stroke-dasharray:none;stroke-opacity:1"
         d="m 16.089069,27.943409 c -0.63696,-0.590597 -0.31247,-0.851559 0.97346,-0.782884"
         id="path240" /><path
         style="fill:#c2b280;fill-opacity:1;stroke:#000000;stroke-width:0.266058;stroke-dasharray:none;stroke-opacity:1"
         d="m 18.010229,27.30989 c 0.16482,0.437798 -0.0343,0.669573 -0.59746,0.695326"
         id="path241" /><path
         style="fill:#c2b280;fill-opacity:1;stroke:#000000;stroke-width:0.266058;stroke-dasharray:none;stroke-opacity:1"
         d="m 16.873269,29.391505 c 0.0338,-0.311262 0.1431,-0.601921 0.32797,-0.871979"
         id="path242" /><path
         style="fill:#c2b280;fill-opacity:1;stroke:#000000;stroke-width:0.266058;stroke-dasharray:none;stroke-opacity:1"
         d="m 2.0846489,34.639137 c 1.15153,-4.195206 4.00282,-1.120411 4.02775,0.154518"
         id="path243" /><path
         style="fill:#c2b280;fill-opacity:1;stroke:#000000;stroke-width:0.266058;stroke-dasharray:none;stroke-opacity:1"
         d="m 4.3302989,33.804747 c 1.13313,0.74168 1.31855,1.524566 0.55627,2.348655"
         id="path244" /><path
         style="fill:#c2b280;fill-opacity:1;stroke:#000000;stroke-width:0.266058;stroke-dasharray:none;stroke-opacity:1"
         d="m 3.2898889,35.473528 c -0.50476,-0.508189 -0.5288,-1.016377 -0.0721,-1.524566"
         id="path245" /><path
         style="fill:#c2b280;fill-opacity:1;stroke:#000000;stroke-width:0.266058;stroke-dasharray:none;stroke-opacity:1"
         d="m 2.4039889,35.03058 c 0.3159,0.848125 0.89276,1.421554 1.73059,1.720287"
         id="path246" /><path
         style="fill:#c2b280;fill-opacity:1;stroke:#000000;stroke-width:0.266058;stroke-dasharray:none;stroke-opacity:1"
         d="m 3.9285589,34.350706 c -0.46771,0.192092 -0.10659,1.11951 0.41204,0.906499 0.51864,-0.213012 0.0557,-1.098591 -0.41204,-0.906499 z"
         id="path247" /><path
         style="fill:#c2b280;fill-opacity:1;stroke:#000000;stroke-width:0.266058;stroke-dasharray:none;stroke-opacity:1"
         d="m 1.0133289,34.639137 c 0.0934,1.885712 0.76563,2.400725 1.35975,3.100638"
         id="path248" /><path
         style="fill:#c2b280;fill-opacity:1;stroke:#000000;stroke-width:0.266058;stroke-dasharray:none;stroke-opacity:1"
         d="m 1.6416989,34.876063 c -0.007,1.463034 0.99412,2.333976 1.7718,3.378767"
         id="path249" /><path
         style="fill:#c2b280;fill-opacity:1;stroke:none;stroke-width:0.266058;stroke-dasharray:none;stroke-opacity:1"
         d="m 6.8437789,35.617744 c -0.39337,0.402196 -0.26771,1.677929 -2.10889,2.702723"
         id="path250" /><path
         style="fill:#c2b280;fill-opacity:1;stroke:#000000;stroke-width:0.266058;stroke-dasharray:none;stroke-opacity:1"
         d="m 1.3017589,34.175587 c 0.76229,-1.974381 2.0465,-2.616485 3.85264,-1.926309"
         id="path251" /><path
         style="fill:#c2b280;fill-opacity:1;stroke:#000000;stroke-width:0.266058;stroke-dasharray:none;stroke-opacity:1"
         d="m 5.6385489,32.280181 c 0.72788,0.511198 0.53948,1.342018 0.99921,1.926309"
         id="path252" /><path
         style="display:inline;fill:#c2b280;fill-opacity:1;stroke:#000000;stroke-width:0.264583;stroke-dasharray:none;stroke-opacity:1"
         d="m 2.4348889,36.143101 c 0.89244,1.841168 3.00732,2.121504 3.80113,0.123614"
         id="path253"
         transform="matrix(1.0055736,0,0,1.0055736,4.1252553e-4,-0.147056)" /></g></g></svg>
