<?xml version="1.0" encoding="UTF-8" standalone="no"?>
<!-- Created with Inkscape (http://www.inkscape.org/) -->

<svg
   width="26.45908mm"
   height="24.073908mm"
   viewBox="0 0 26.45908 24.073908"
   version="1.1"
   id="svg1"
   xml:space="preserve"
   xmlns="http://www.w3.org/2000/svg"
   xmlns:svg="http://www.w3.org/2000/svg"><defs
     id="defs1" /><g
     id="layer2"
     style="display:inline"
     transform="translate(-26.458333,-1.1922124)"><g
       id="g20"
       transform="matrix(0.71870676,0,0,0.7187039,-15.728119,-10.463143)"
       style="stroke-width:0.368138;stroke-dasharray:none"><path
         style="display:inline;fill:#eeeebf;fill-opacity:1;stroke:#000000;stroke-width:0.368138;stroke-dasharray:none"
         d="m 68.758593,21.960416 c -0.04525,-0.981041 2.172394,-2.052736 3.175,-3.208072 3.81844,0.570655 8.268378,-0.804149 13.824479,-2.248959 l -4.200261,7.573698 -10.649479,2.877344 z"
         id="path20" /><path
         style="fill:#fafae7;fill-opacity:1;stroke:#000000;stroke-width:0.368138;stroke-dasharray:none"
         d="m 73.653382,25.366927 c 2.375874,-0.941372 5.193826,-3.945775 7.805211,-5.986198 L 76.993749,29.864843 72.69427,26.42526 Z"
         id="path19" /><path
         style="fill:#f7f7e3;fill-opacity:1;stroke:#000000;stroke-width:0.368138;stroke-dasharray:none"
         d="m 59.332812,32.378385 c 1.72314,-7.885436 6.338742,-9.8964 7.60677,-10.715625 l 1.819011,0.297656 c 2.094053,0.49983 2.650307,2.339242 4.894791,3.406511 0.339442,0.953709 1.9542,1.216068 2.94349,2.414323 l -1.322917,6.482291 z"
         id="path18" /><path
         style="fill:#ededba;fill-opacity:1;stroke:#000000;stroke-width:0.368138;stroke-dasharray:none"
         d="m 59.332812,32.378385 c 3.672727,-1.211716 8.628288,-0.455982 13.196093,-1.190625 0.56224,-1.532378 1.918229,-2.667882 4.067969,-3.40651 1.910874,-2.348113 3.263633,-6.055666 4.861719,-8.400521 0.363801,0.187413 1.212672,0.286632 2.546612,0.297656 l 8.202086,10.781771 -17.826302,13.49375 z"
         id="path17" /><path
         style="fill:#f8f8e7;fill-opacity:1;stroke:#000000;stroke-width:0.368138;stroke-dasharray:none"
         d="m 93.232551,25.366927 c -1.344965,-3.208073 -2.86632,-4.652257 -4.564063,-4.332552 0.630454,-1.307219 -0.922689,-3.090836 -0.529166,-4.398698 l -2.38125,-0.132292 c -0.451997,1.367014 -1.036285,2.425347 -1.752865,3.175 1.619629,2.077553 2.056915,3.948059 3.935675,5.787762 l 2.282034,2.844269 z"
         id="path16" /><path
         style="display:inline;fill:#e8e8a6;fill-opacity:1;stroke:#000000;stroke-width:0.368138;stroke-dasharray:none"
         d="m 90.123697,45.012239 c 0.94809,-2.006424 1.5875,-4.012847 1.918229,-6.019271 0.683507,-1.344965 1.014236,-2.425347 0.992187,-3.241146 0.389579,-1.631597 2.245023,-3.130902 2.282032,-4.497916 0.153577,-2.223283 -1.171829,-3.991494 -2.083594,-5.886979 -1.973351,0.540191 -3.847483,0.440972 -5.291667,0.09922 0.0864,0.71658 0.178119,1.433159 -0.165364,2.149739 -3.19407,1.508722 -3.980726,4.52198 -3.208078,8.764323 l 1.289849,6.548437 z"
         id="path15" /><path
         style="fill:#f7f7e3;fill-opacity:1;stroke:#000000;stroke-width:0.368138;stroke-dasharray:none"
         d="m 85.857291,42.928645 c 0.147308,-2.128838 0.872384,-4.125997 0.06614,-6.085416 -0.515632,-0.382751 -0.978011,-0.840056 -1.918229,-0.628386 -2.475824,-1.190203 -5.606823,-0.966608 -9.75651,1.455209 l -3.340365,3.869531 11.1125,3.042708 z"
         id="path14" /><path
         style="fill:#dddd86;fill-opacity:1;stroke:#000000;stroke-width:0.368138;stroke-dasharray:none"
         d="m 81.888541,46.897395 c 3.042067,1.054699 5.72047,0.04864 8.235156,-1.885156 l -4.464844,-2.14974 z"
         id="path13" /><path
         id="path12"
         style="fill:#e8e8a6;fill-opacity:1;stroke:#000000;stroke-width:0.368138;stroke-dasharray:none"
         d="m 73.521094,35.95026 -2.745052,0.859896 -0.0067,0.0067 c 0.0794,-0.0021 0.158696,-0.0024 0.238228,-0.0067 L 66.741146,48.41875 c -0.03212,0.0081 -0.06262,0.01484 -0.09457,0.02274 0.929833,-0.116657 1.799184,-0.495602 2.475818,-1.709457 2.239594,-0.225256 2.684477,1.823618 6.548437,2.778125 1.956771,-1.916751 4.029519,-2.867031 6.250782,-2.579687 1.777445,-1.123213 2.844443,-2.60165 3.935677,-4.067969 -4.473948,-1.144607 -8.020682,-1.362002 -11.641667,-1.653646 0.21556,-0.481554 0.37755,-1.284524 0.330729,-3.340364 z" /><path
         style="fill:#e8e8a6;fill-opacity:1;stroke:#000000;stroke-width:0.368138;stroke-dasharray:none"
         d="m 64.161458,48.947916 c 0.825574,-0.142068 1.666784,-0.299771 2.579687,-0.529167 l 4.266406,-11.608593 c -4.836151,0.261965 -9.438778,-3.524593 -11.674739,-4.431771 -0.582275,1.38835 -0.43257,3.090406 -0.429948,4.729427 0.596028,0.380249 0.932037,0.793 2.182812,1.091406 0.672776,2.594807 1.133802,5.643366 1.190625,9.558073 z"
         id="path11" /></g></g></svg>
