<?xml version="1.0" encoding="UTF-8" standalone="no"?>
<!-- Created with Inkscape (http://www.inkscape.org/) -->

<svg
   width="26.458279mm"
   height="18.531416mm"
   viewBox="0 0 26.458279 18.531416"
   version="1.1"
   id="svg1"
   xml:space="preserve"
   xmlns="http://www.w3.org/2000/svg"
   xmlns:svg="http://www.w3.org/2000/svg"><defs
     id="defs1" /><g
     id="layer2"
     style="display:inline"
     transform="translate(0,-3.9634581)"><g
       id="g10"
       style="stroke-width:0.264373;stroke-dasharray:none"
       transform="matrix(1.0008011,0,0,1.0008011,-0.00975424,3.9534284)"><path
         style="fill:#a9afa9;fill-opacity:1;stroke:#1a1a1a;stroke-width:0.264373;stroke-dasharray:none"
         d="m 5.15275,18.342897 1.1438465,-0.351958 0.791894,0.02934 0.9678699,-0.322621 1.6424464,0.146646 0.9678702,-0.498599 1.231836,0.117316 1.759763,-1.290493 1.349152,0.08798 1.818422,1.026528 0.879882,-0.175975 2.463668,-0.938541 2.141046,0.733235 0.586588,-0.293293 2.668977,0.645246 0.175976,-3.050258 -0.410614,-0.439939 0.439943,-3.9594688 -0.586589,-0.821224 0.263967,-1.055859 -0.61592,-0.791893 0.762565,-2.8449498 -2.786293,0.3812796 c -2.201696,1.6228002 -4.56889,2.8318562 -6.921737,4.0767872 -1.32823,-0.237372 -2.910909,0.03415 -5.249961,1.8184228 l -1.4957992,0.08798 -1.0851884,0.850553 c -0.8911832,-0.183094 -1.7458337,-0.1957 -2.4050105,0.703905 z"
         id="path2" /><path
         id="path3"
         style="fill:#e6f0e6;fill-opacity:1;stroke:#1a1a1a;stroke-width:0.264373;stroke-dasharray:none"
         d="m 19.197453,0.14651728 -0.934492,0.5271066 C 17.34806,0.34118548 16.655204,0.67402628 16.058647,1.2966185 15.101312,1.4220368 14.001344,1.4802244 14.213496,2.15961 L 12.847231,2.1113889 10.019922,3.0941019 6.9764498,3.1179352 6.1140125,6.0172986 C 5.566222,5.6991216 5.0086848,5.3587846 5.0836327,6.4729042 L 3.4585259,6.2800206 2.9508186,8.0542242 c -1.7023999,0.520628 -2.33920022,1.260771 -1.8689837,2.2287018 -1.76317391,3.176909 -0.70337002,3.899285 0.4073853,4.577126 l 3.674781,3.344993 0.4871995,-5.992165 c 0.6591769,-0.899606 1.5137754,-0.887012 2.4049586,-0.703918 l 1.0852515,-0.850243 1.4959642,-0.08813 c 2.339052,-1.7842718 3.921773,-2.0559178 5.250003,-1.8185458 2.352846,-1.244931 4.719973,-2.453823 6.921669,-4.0766228 L 25.28606,4.3362111 26.29039,2.5908286 C 25.645775,1.6681395 25.660099,0.43672968 23.103362,0.41034768 21.5613,0.61057908 20.445173,0.29949678 19.197453,0.14651728 Z" /><path
         style="fill:#000000;fill-opacity:1;stroke:none;stroke-width:0.264373;stroke-dasharray:none"
         d="m 7.9764942,13.56135 c 0.1256703,-0.136771 0.2513406,-0.11136 0.377011,-0.04659 0.1889562,0.04047 0.2030613,0.152942 0.2033318,0.271109 C 8.46995,13.956384 8.3530516,14.117664 8.1205208,14.243366 7.7937591,14.148546 7.8227364,14.004659 7.811287,13.86635 7.785182,13.748449 7.896092,13.657952 7.9764942,13.561352 Z"
         id="path4" /><path
         style="fill:#000000;fill-opacity:1;stroke:none;stroke-width:0.264373;stroke-dasharray:none"
         d="m 9.2346098,14.772869 c 0.07866,-0.303169 0.204382,-0.653407 0.338886,-1.012423 -0.05267,-0.03812 -0.08711,-0.07625 -0.105905,-0.114373 -0.0157,-0.07977 0.03394,-0.107276 0.07201,-0.144027 0.09701,-0.01827 0.192293,-0.0441 0.288057,-0.06783 0.05619,0.03087 0.119122,0.001 0.165207,0.122847 0.3483862,0.01713 0.3308522,0.07279 0.4871492,0.110138 0.424689,0.363568 0.47734,0.809936 0.537981,1.224227 -0.262764,0.242158 -0.504986,0.371332 -0.745549,0.491384 C 9.8952318,15.234326 9.3998178,15.052297 9.2346078,14.772869 Z"
         id="path5" /><path
         style="fill:#000000;fill-opacity:1;stroke:none;stroke-width:0.264373;stroke-dasharray:none"
         d="m 11.085776,12.841218 c 0.120641,-0.346945 0.10612,-0.784822 0.156735,-1.160689 0.07288,-0.161061 0.232563,-0.307657 0.118611,-0.499858 l 0.05507,-0.309234 0.0593,0.491385 0.08896,0.254166 c -0.002,0.353462 0.05504,0.693781 -0.03813,1.067492 0.44447,0.64215 0.973796,1.270902 1.219991,1.94436 0.41158,0.02437 0.695025,0.112808 1.042075,0.169442 -0.0031,0.10449 0.0087,0.208981 -0.02542,0.313471 -0.04578,0.0083 -0.09375,0.01785 -0.194859,0.0593 0.0039,-0.05137 0.0064,-0.102066 -0.03389,-0.131318 -0.0534,-0.01543 -0.0381,-0.0371 -0.203331,-0.04237 -0.117013,-0.05723 -0.0062,-0.293026 -0.499858,-0.05507 -0.121566,1.78e-4 -0.266776,-0.01856 -0.444788,-0.06354 -0.326088,-0.557465 0.0835,-0.28116 -1.30046,-2.037548 z"
         id="path6" /><path
         style="fill:#000000;fill-opacity:1;stroke:none;stroke-width:0.264373;stroke-dasharray:none"
         d="m 13.174162,11.125605 c 0.06179,-0.229224 0.189938,-0.226206 0.292291,-0.313469 0.612267,0.08062 0.48436,0.320038 0.554925,0.521037 -0.279333,0.557545 -0.591936,0.290846 -0.770966,0.23722 z"
         id="path7" /><path
         style="fill:#000000;fill-opacity:1;stroke:none;stroke-width:0.264373;stroke-dasharray:none"
         d="m 16.12671,14.611899 c 0.173634,-0.351376 0.426398,-0.107767 0.677773,-0.0042 -0.03223,0.252542 0.115092,0.260245 0.194859,0.360067 -0.272936,0.273977 -0.757601,0.258256 -0.872632,-0.355831 z"
         id="path8" /><path
         style="fill:#000000;fill-opacity:1;stroke:none;stroke-width:0.264373;stroke-dasharray:none"
         d="m 18.786968,12.493858 c -0.396093,-0.290723 -0.316913,-0.682567 -0.190624,-1.084435 0.506473,-0.832261 0.839215,-0.385232 1.232699,-0.385483 1.067824,0.487031 1.372985,0.09276 1.98672,0.05506 0.30247,0.159145 0.542879,0.331218 0.576107,0.546455 -0.199819,0.309077 0.0032,0.525352 -0.276929,0.546944 -1.151152,0.08871 -1.886019,0.234228 -2.336732,0.562908 -0.280971,-0.216452 -0.576685,-0.39236 -0.991241,-0.241454 z"
         id="path9" /><path
         style="fill:#000000;fill-opacity:1;stroke:none;stroke-width:0.264373;stroke-dasharray:none"
         d="m 20.735662,8.0603792 c 0.272827,-0.60048 0.888375,-0.255129 0.942041,-0.130299 0.02411,0.375098 -0.198861,0.455444 -0.393889,0.569118 -0.497113,-0.06747 -0.443576,-0.276224 -0.548152,-0.438819 z"
         id="path10" /></g></g></svg>
